<?xml version="1.0" encoding="UTF-8"?>
<svg width="37px" height="32px" viewBox="0 0 37 32" version="1.1" xmlns="http://www.w3.org/2000/svg" xmlns:xlink="http://www.w3.org/1999/xlink">
    <!-- Generator: Sketch 64 (93537) - https://sketch.com -->
    <title>Group 12</title>
    <desc>Created with Sketch.</desc>
    <defs>
        <polygon id="path-1" points="0 0.2134 18.2864 0.2134 18.2864 21.5936277 0 21.5936277"></polygon>
    </defs>
    <g id="mock-up" stroke="none" stroke-width="1" fill="none" fill-rule="evenodd">
        <g id="0.0搜尋首頁-" transform="translate(-50.000000, -13.000000)">
            <g id="Group-12" transform="translate(50.000000, 12.000000)">
                <path d="M0.9598,21.8848 C1.9608,22.3128 2.9838,22.8928 4.0828,23.1928 C6.3828,23.8208 8.5438,23.2048 10.5698,22.0928 C13.5198,20.4688 15.5938,17.9928 17.2048,15.0948 C17.9448,13.7628 18.6588,12.4128 19.4348,10.9768 C20.1578,11.6358 20.8358,12.2458 21.5118,12.8618 C22.2388,13.5278 22.9568,14.1998 23.6968,14.8538 C23.9678,15.0908 24.0268,15.2958 23.8498,15.6278 C23.4368,16.4098 23.0908,17.2268 22.6638,17.9998 C22.4208,18.4428 22.4968,18.7058 22.8728,19.0168 C23.5358,19.5608 24.1498,20.1608 24.8648,20.8118 C25.4218,19.6658 25.9498,18.6138 26.4368,17.5408 C26.4878,17.4308 26.3348,17.1698 26.2078,17.0468 C25.6468,16.4988 25.0448,15.9928 24.4928,15.4368 C24.3638,15.3078 24.2728,14.9948 24.3398,14.8478 C24.7788,13.8828 25.2708,12.9388 25.7818,11.9068 C26.5808,12.6268 27.3438,13.3148 28.1628,14.0538 C28.7398,12.9008 29.2678,11.8478 29.8298,10.7168 C30.5688,11.3988 31.2598,12.0068 31.9098,12.6558 C32.0118,12.7578 32.0018,13.0688 31.9298,13.2298 C31.5448,14.0718 31.1428,14.9058 30.7078,15.7188 C30.5228,16.0678 30.5528,16.2888 30.8528,16.5438 C31.4178,17.0258 31.9498,17.5458 32.5088,18.0378 C32.7508,18.2508 32.8358,18.4458 32.6698,18.7628 C31.3768,21.2618 30.1898,23.8218 28.7958,26.2628 C26.7408,29.8598 23.5088,31.9018 19.4678,32.5468 C13.7828,33.4588 8.8678,31.7498 4.7308,27.7968 C3.0368,26.1768 1.8648,24.1838 0.9928,22.0138 C0.9578,21.9268 0.9448,21.8268 0.9598,21.8848" id="Fill-1" fill="#006EB5"></path>
                <g id="Group-5" transform="translate(0.000000, 0.787000)">
                    <mask id="mask-2" fill="white">
                        <use xlink:href="#path-1"></use>
                    </mask>
                    <g id="Clip-4"></g>
                    <path d="M9.3104,20.6124 C5.9054,22.9684 0.8734,20.8384 0.1474,16.8124 C-0.3626,13.9954 0.5144,11.4964 1.7984,9.0764 C3.4924,5.8904 5.9804,2.9774 8.1644,0.2134 C8.8854,0.8424 9.6094,1.4684 10.3224,2.1034 C12.8914,4.3894 15.4594,6.6764 18.0214,8.9734 C18.1674,9.1044 18.2424,9.3204 18.2864,9.5504 C14.4684,7.7934 11.0694,8.1814 8.6024,11.6584 C6.4714,14.6694 6.9444,17.7654 9.3104,20.6124" id="Fill-3" fill="#F18310" mask="url(#mask-2)"></path>
                </g>
                <path d="M22.8973,4.1856 C23.7373,4.9486 24.5003,5.6246 25.2423,6.3266 C25.3283,6.4076 25.3873,6.6286 25.3393,6.7296 C24.8103,7.8446 24.2543,8.9526 23.6733,10.1266 C22.8023,9.3276 21.9793,8.5706 21.1263,7.7856 C21.7083,6.6056 22.2803,5.4446 22.8973,4.1856" id="Fill-6" fill="#006EB5"></path>
                <path d="M27.3465,2.876 C28.1705,3.633 28.9415,4.329 29.6935,5.046 C29.7755,5.123 29.8115,5.347 29.7615,5.453 C29.2425,6.554 28.7025,7.644 28.1235,8.827 C27.2895,8.064 26.5035,7.358 25.7415,6.631 C25.6655,6.557 25.6545,6.328 25.7105,6.216 C26.2265,5.133 26.7645,4.058 27.3465,2.876" id="Fill-8" fill="#006EB5"></path>
                <path d="M35.2225,14.3203 C34.4485,13.6113 33.7155,12.9583 33.0095,12.2773 C32.9155,12.1883 32.8755,11.9343 32.9335,11.8153 C33.4175,10.7793 33.9305,9.7583 34.4805,8.6463 C35.2575,9.3623 35.9975,10.0323 36.7205,10.7203 C36.7945,10.7883 36.8315,10.9823 36.7885,11.0743 C36.2865,12.1413 35.7685,13.1993 35.2225,14.3203" id="Fill-10" fill="#006EB5"></path>
            </g>
        </g>
    </g>
</svg>