<svg width="24" height="24" viewBox="0 0 24 24" xmlns="http://www.w3.org/2000/svg">
    <path d="M2.98 2.235h18v1.5h-18zm0 3.5h18v1.5h-18zm0 12h7v1.5h-7zm3.996-8.073-2.079 6H3.41l2.079-6h1.487zm3 0-2.079 6H6.41l2.079-6h1.487zm4.756 12.104L11.46 18.41l3.273-3.362 1.158 1.095-1.354 1.392h2.78c.585 0 1.078-.201 1.477-.603.4-.402.6-.896.6-1.482s-.2-1.08-.6-1.484a1.997 1.997 0 0 0-1.478-.606H11.08v-1.625h6.235c1.008 0 1.877.367 2.607 1.102.73.735 1.095 1.606 1.095 2.613 0 1.025-.36 1.912-1.083 2.661-.721.75-1.594 1.124-2.619 1.124h-2.779l1.354 1.412-1.158 1.119z" fill="#16171D" fill-rule="evenodd"/>
</svg>
