<svg width="24" height="24" viewBox="0 0 24 24" xmlns="http://www.w3.org/2000/svg">
    <path d="M11.206 17.03h1.588v-4.236h4.235v-1.588h-4.235V6.97h-1.588v4.235H6.97v1.588h4.235v4.235zM4.914 21c-.535 0-.988-.185-1.358-.556A1.848 1.848 0 0 1 3 19.086V4.914c0-.535.185-.988.556-1.358.37-.37.823-.556 1.358-.556h14.172c.535 0 .987.185 1.358.556.37.37.556.823.556 1.358v14.172c0 .535-.185.987-.556 1.358-.37.37-.823.556-1.358.556H4.914zm0-1.588h14.172a.311.311 0 0 0 .224-.102.311.311 0 0 0 .102-.224V4.914a.311.311 0 0 0-.102-.224.311.311 0 0 0-.224-.102H4.914a.311.311 0 0 0-.224.102.311.311 0 0 0-.102.224v14.172c0 .081.034.156.102.224a.311.311 0 0 0 .224.102zM4.631 4.588v14.824V4.588z" fill="#16171D" fill-rule="evenodd"/>
</svg>
