<svg width="24" height="24" viewBox="0 0 24 24" xmlns="http://www.w3.org/2000/svg">
    <path d="M4.5 20.916v-5.23c0-.506.175-.933.525-1.283.35-.35.778-.525 1.283-.525h11.384c.505 0 .933.175 1.283.525.35.35.525.777.525 1.282v5.231h-15zm1.5-3.5h12v-1.73a.294.294 0 0 0-.096-.212.294.294 0 0 0-.212-.096H6.308a.294.294 0 0 0-.212.096.294.294 0 0 0-.096.211v1.731zm6-3.538L7.5 7.666V7.57c0-1.249.438-2.31 1.313-3.187C9.69 3.508 10.751 3.07 12 3.07c1.249 0 2.31.438 3.187 1.313.875.876 1.313 1.938 1.313 3.187v.096L12 13.878zm0-2.175 3-4.133c0-.833-.292-1.542-.875-2.125A2.893 2.893 0 0 0 12 4.57c-.833 0-1.542.292-2.125.875A2.893 2.893 0 0 0 9 7.57l3 4.133z" fill="#16171D" fill-rule="evenodd"/>
</svg>
