<svg width="24" height="24" viewBox="0 0 24 24" xmlns="http://www.w3.org/2000/svg">
    <path d="M6 19.62c-.444 0-.824-.157-1.14-.474a1.556 1.556 0 0 1-.475-1.14c0-.445.158-.825.474-1.142A1.556 1.556 0 0 1 6 16.39c.445 0 .825.158 1.141.474.317.317.475.697.475 1.141 0 .445-.158.825-.475 1.141a1.556 1.556 0 0 1-1.14.475zm6 0c-.444 0-.824-.157-1.14-.474a1.556 1.556 0 0 1-.475-1.14c0-.445.158-.825.475-1.142A1.556 1.556 0 0 1 12 16.39c.445 0 .825.158 1.141.474.317.317.475.697.475 1.141 0 .445-.158.825-.475 1.141a1.556 1.556 0 0 1-1.14.475zm6 0c-.444 0-.824-.157-1.14-.474a1.556 1.556 0 0 1-.475-1.14c0-.445.158-.825.474-1.142A1.556 1.556 0 0 1 18 16.39c.445 0 .825.158 1.141.474.317.317.475.697.475 1.141 0 .445-.158.825-.475 1.141a1.556 1.556 0 0 1-1.14.475zm-12-6c-.444 0-.824-.157-1.14-.474a1.556 1.556 0 0 1-.475-1.14c0-.445.158-.825.474-1.142A1.556 1.556 0 0 1 6 10.39c.445 0 .825.158 1.141.474.317.317.475.697.475 1.141 0 .445-.158.825-.475 1.141a1.556 1.556 0 0 1-1.14.475zm6 0c-.444 0-.824-.157-1.14-.474a1.556 1.556 0 0 1-.475-1.14c0-.445.158-.825.475-1.142A1.556 1.556 0 0 1 12 10.39c.445 0 .825.158 1.141.474.317.317.475.697.475 1.141 0 .445-.158.825-.475 1.141a1.556 1.556 0 0 1-1.14.475zm6 0c-.444 0-.824-.157-1.14-.474a1.556 1.556 0 0 1-.475-1.14c0-.445.158-.825.474-1.142A1.556 1.556 0 0 1 18 10.39c.445 0 .825.158 1.141.474.317.317.475.697.475 1.141 0 .445-.158.825-.475 1.141a1.556 1.556 0 0 1-1.14.475zm-12-6c-.444 0-.824-.157-1.14-.474a1.556 1.556 0 0 1-.475-1.14c0-.445.158-.825.474-1.142A1.556 1.556 0 0 1 6 4.39c.445 0 .825.158 1.141.474.317.317.475.697.475 1.141 0 .445-.158.825-.475 1.141a1.556 1.556 0 0 1-1.14.475zm6 0c-.444 0-.824-.157-1.14-.474a1.556 1.556 0 0 1-.475-1.14c0-.445.158-.825.475-1.142A1.556 1.556 0 0 1 12 4.39c.445 0 .825.158 1.141.474.317.317.475.697.475 1.141 0 .445-.158.825-.475 1.141a1.556 1.556 0 0 1-1.14.475zm6 0c-.444 0-.824-.157-1.14-.474a1.556 1.556 0 0 1-.475-1.14c0-.445.158-.825.474-1.142A1.556 1.556 0 0 1 18 4.39c.445 0 .825.158 1.141.474.317.317.475.697.475 1.141 0 .445-.158.825-.475 1.141a1.556 1.556 0 0 1-1.14.475z" fill="#16171D" fill-rule="evenodd"/>
</svg>
