<svg width="24" height="24" viewBox="0 0 24 24" xmlns="http://www.w3.org/2000/svg">
    <path d="m12 17.596 3.654-3.654-1.054-1.054-1.85 1.85v-4.45h-1.5v4.45l-1.85-1.85-1.054 1.054L12 17.596zM5 7.904v10.788a.3.3 0 0 0 .087.221.3.3 0 0 0 .22.087h13.385a.3.3 0 0 0 .221-.087.3.3 0 0 0 .087-.22V7.902H5zM5.385 20.5c-.5 0-.938-.19-1.317-.568-.379-.38-.568-.818-.568-1.317V7.005c0-.213.034-.417.103-.612.068-.194.171-.373.309-.537l1.403-1.698a1.6 1.6 0 0 1 .616-.49c.246-.112.506-.168.78-.168H17.27c.275 0 .536.056.786.168.25.112.456.276.62.49l1.413 1.717c.138.164.24.345.309.542.069.198.103.404.103.618v11.58c0 .499-.19.938-.568 1.317-.38.379-.818.568-1.317.568H5.385zM5.39 6.404H18.6l-1.09-1.298a.38.38 0 0 0-.111-.077.307.307 0 0 0-.13-.029H6.721a.306.306 0 0 0-.13.029.381.381 0 0 0-.11.077L5.39 6.404z" fill="#16171D" fill-rule="evenodd"/>
</svg>
