<svg width="16" height="17" viewBox="0 0 16 17" xmlns="http://www.w3.org/2000/svg">
    <path d="M8.18 15.543c-.976 0-1.805-.342-2.488-1.025-.684-.684-1.025-1.513-1.025-2.488V4.825c0-.702.25-1.303.75-1.802.499-.5 1.1-.75 1.801-.75.702 0 1.302.25 1.802.75s.75 1.1.75 1.802v6.5c0 .445-.154.821-.462 1.128a1.535 1.535 0 0 1-1.129.461c-.445 0-.821-.153-1.128-.46a1.535 1.535 0 0 1-.461-1.13v-6.5h.795v6.5a.77.77 0 0 0 .228.567.77.77 0 0 0 .567.229.77.77 0 0 0 .566-.229.77.77 0 0 0 .228-.566v-6.5c0-.492-.17-.908-.51-1.247-.339-.34-.755-.51-1.247-.51-.492 0-.907.17-1.246.51-.34.34-.51.755-.51 1.247v7.205c0 .75.266 1.39.797 1.922.53.53 1.171.796 1.922.796.75 0 1.39-.266 1.921-.796.531-.531.796-1.172.796-1.922V4.825h.795v7.205c0 .975-.341 1.804-1.025 2.488-.683.683-1.512 1.025-2.487 1.025z" fill="#4C61F7" fill-rule="nonzero"/>
</svg>
