<svg width="17" height="16" viewBox="0 0 17 16" xmlns="http://www.w3.org/2000/svg">
    <path d="m9.067 13.1.766-1.333c-.366 0-.68-.13-.941-.392a1.284 1.284 0 0 1-.392-.942c0-.366.13-.68.392-.941.26-.261.575-.392.941-.392.367 0 .68.13.942.392.261.26.392.575.392.941a1.246 1.246 0 0 1-.183.667l-1.15 2h-.767zm3 0 .766-1.333c-.366 0-.68-.13-.941-.392a1.284 1.284 0 0 1-.392-.942c0-.366.13-.68.392-.941.26-.261.575-.392.941-.392.367 0 .68.13.942.392.261.26.392.575.392.941a1.246 1.246 0 0 1-.183.667l-1.15 2h-.767zM7.933 2.867 7.167 4.2c.366 0 .68.13.941.392.261.26.392.575.392.941 0 .367-.13.68-.392.942a1.284 1.284 0 0 1-.941.392c-.367 0-.68-.13-.942-.392a1.284 1.284 0 0 1-.392-.942 1.246 1.246 0 0 1 .183-.667l1.15-2h.767zm-3 0L4.167 4.2c.366 0 .68.13.941.392.261.26.392.575.392.941 0 .367-.13.68-.392.942a1.284 1.284 0 0 1-.941.392c-.367 0-.68-.13-.942-.392a1.284 1.284 0 0 1-.392-.942 1.246 1.246 0 0 1 .183-.667l1.15-2h.767z" fill="#4C5267" fill-rule="evenodd"/>
</svg>
