<svg width="24" height="24" viewBox="0 0 24 24" xmlns="http://www.w3.org/2000/svg">
    <path d="M12.002 21a8.768 8.768 0 0 1-3.51-.709 9.09 9.09 0 0 1-2.859-1.923 9.09 9.09 0 0 1-1.924-2.857A8.76 8.76 0 0 1 3 12c0-1.244.236-2.414.709-3.51a9.09 9.09 0 0 1 1.923-2.858A9.09 9.09 0 0 1 8.489 3.71 8.76 8.76 0 0 1 12 3c1.244 0 2.414.236 3.51.709a9.09 9.09 0 0 1 2.858 1.923 9.09 9.09 0 0 1 1.924 2.857A8.76 8.76 0 0 1 21 12a8.768 8.768 0 0 1-.709 3.51 9.09 9.09 0 0 1-1.923 2.858 9.09 9.09 0 0 1-2.857 1.924A8.76 8.76 0 0 1 12 21zM12 19.579c.889 0 1.745-.15 2.568-.451a7.515 7.515 0 0 0 2.256-1.305L6.177 7.176a7.697 7.697 0 0 0-1.3 2.256A7.361 7.361 0 0 0 4.42 12c0 2.116.734 3.908 2.203 5.376C8.092 18.845 9.884 19.58 12 19.58zm5.823-2.755a7.515 7.515 0 0 0 1.305-2.256c.3-.823.45-1.68.45-2.568 0-2.116-.733-3.908-2.202-5.376C15.908 5.155 14.116 4.42 12 4.42c-.891 0-1.749.149-2.574.446a7.218 7.218 0 0 0-2.25 1.31l10.647 10.647z" fill="#D3D6DF" fill-rule="evenodd"/>
</svg>
