<svg width="24" height="24" viewBox="0 0 24 24" xmlns="http://www.w3.org/2000/svg">
    <path d="M7.006 14.578a.828.828 0 0 1-.607-.244.82.82 0 0 1-.246-.606c0-.241.081-.444.244-.608a.82.82 0 0 1 .606-.246c.241 0 .444.082.608.245a.82.82 0 0 1 .246.605.828.828 0 0 1-.245.608.82.82 0 0 1-.606.246zm0 3.555a.828.828 0 0 1-.607-.245.82.82 0 0 1-.246-.606c0-.24.081-.443.244-.607a.82.82 0 0 1 .606-.246c.241 0 .444.081.608.244a.82.82 0 0 1 .246.606c0 .241-.082.444-.245.608a.82.82 0 0 1-.606.246zm0-7.022a.828.828 0 0 1-.607-.244.82.82 0 0 1-.246-.606c0-.241.081-.443.244-.607a.82.82 0 0 1 .606-.247c.241 0 .444.082.608.245a.82.82 0 0 1 .246.606.828.828 0 0 1-.245.607.82.82 0 0 1-.606.246zm-2.63-.396a.44.44 0 0 1-.324-.132.44.44 0 0 1-.132-.324.44.44 0 0 1 .132-.323.44.44 0 0 1 .323-.132.44.44 0 0 1 .324.132.44.44 0 0 1 .132.323.44.44 0 0 1-.132.324.44.44 0 0 1-.324.132zm2.63-3.158a.828.828 0 0 1-.607-.245.82.82 0 0 1-.246-.606c0-.24.081-.443.244-.607a.82.82 0 0 1 .606-.246c.241 0 .444.081.608.244a.82.82 0 0 1 .246.606c0 .241-.082.444-.245.608a.82.82 0 0 1-.606.246zm-2.63 6.624a.44.44 0 0 1-.324-.132.44.44 0 0 1-.132-.323.44.44 0 0 1 .132-.323.44.44 0 0 1 .323-.132.44.44 0 0 1 .324.132.44.44 0 0 1 .132.323.44.44 0 0 1-.132.323.44.44 0 0 1-.324.132zm6.183 6.184a.44.44 0 0 1-.323-.132.44.44 0 0 1-.132-.323.44.44 0 0 1 .132-.323.44.44 0 0 1 .323-.132.44.44 0 0 1 .324.132.44.44 0 0 1 .132.323.44.44 0 0 1-.132.323.44.44 0 0 1-.324.132zm0-15.834a.44.44 0 0 1-.323-.132.44.44 0 0 1-.132-.324.44.44 0 0 1 .132-.323.44.44 0 0 1 .323-.132.44.44 0 0 1 .324.132.44.44 0 0 1 .132.323.44.44 0 0 1-.132.324.44.44 0 0 1-.324.132zm.002 3.026a.828.828 0 0 1-.607-.245.82.82 0 0 1-.246-.606c0-.24.081-.443.244-.607a.82.82 0 0 1 .606-.246c.24 0 .443.081.607.244a.82.82 0 0 1 .246.606c0 .241-.081.444-.244.608a.82.82 0 0 1-.606.246zm-.002 7.403a1.19 1.19 0 0 1-.874-.36 1.19 1.19 0 0 1-.36-.874c0-.343.12-.634.36-.874s.532-.36.874-.36c.343 0 .635.12.874.36.24.24.36.531.36.874 0 .343-.12.634-.36.874s-.53.36-.874.36zm0-3.467a1.19 1.19 0 0 1-.874-.36 1.19 1.19 0 0 1-.36-.874c0-.342.12-.634.36-.874s.532-.36.874-.36c.343 0 .635.12.874.36.24.24.36.532.36.874 0 .343-.12.635-.36.874-.24.24-.53.36-.874.36zm.002 6.64a.828.828 0 0 1-.607-.245.82.82 0 0 1-.246-.606c0-.24.081-.443.244-.607a.82.82 0 0 1 .606-.246c.24 0 .443.081.607.244a.82.82 0 0 1 .246.606c0 .241-.081.444-.244.608a.82.82 0 0 1-.606.246zm1.879 1.645V4.208a7.448 7.448 0 0 1 2.97.657 8.107 8.107 0 0 1 2.428 1.678A7.768 7.768 0 0 1 19.479 9c.4.936.599 1.934.599 2.993 0 1.058-.2 2.056-.599 2.994a7.764 7.764 0 0 1-1.641 2.456 8.107 8.107 0 0 1-2.427 1.679 7.448 7.448 0 0 1-2.971.657z" fill="#16171D" fill-rule="evenodd"/>
</svg>
