<svg width="24" height="24" viewBox="0 0 24 24" xmlns="http://www.w3.org/2000/svg">
    <path d="M7 16.885a.856.856 0 0 0 .63-.254c.17-.17.255-.38.255-.631a.856.856 0 0 0-.254-.63.856.856 0 0 0-.631-.255.856.856 0 0 0-.63.254.856.856 0 0 0-.255.631c0 .251.085.462.254.63.17.17.38.255.631.255zm-.75-3.5h1.5V7.25h-1.5v6.135zm5 3.365h6.5v-1.5h-6.5v1.5zm0-4h6.5v-1.5h-6.5v1.5zm0-4h6.5v-1.5h-6.5v1.5zM4.308 20.5c-.505 0-.933-.175-1.283-.525a1.745 1.745 0 0 1-.525-1.283V5.308c0-.505.175-.933.525-1.283.35-.35.778-.525 1.283-.525h15.384c.505 0 .933.175 1.283.525.35.35.525.778.525 1.283v13.384c0 .505-.175.933-.525 1.283-.35.35-.778.525-1.283.525H4.308zm0-1.5h15.384a.294.294 0 0 0 .212-.096.294.294 0 0 0 .096-.212V5.308a.294.294 0 0 0-.096-.212.294.294 0 0 0-.212-.096H4.308a.294.294 0 0 0-.212.096.294.294 0 0 0-.096.212v13.384c0 .077.032.148.096.212a.294.294 0 0 0 .212.096zm-.27 0V5v14z" fill="#16171D" fill-rule="evenodd"/>
</svg>
