<svg width="24" height="24" viewBox="0 0 24 24" xmlns="http://www.w3.org/2000/svg">
    <path d="M5.308 21.515c-.505 0-.933-.175-1.283-.525a1.745 1.745 0 0 1-.525-1.282V6.323c0-.505.175-.933.525-1.283.35-.35.778-.525 1.283-.525h1.384V2.4h1.539v2.115h7.577V2.4h1.5v2.115h1.384c.505 0 .933.175 1.283.525.35.35.525.778.525 1.283v13.385c0 .505-.175.932-.525 1.282-.35.35-.778.525-1.283.525H5.308zm0-1.5h13.384a.294.294 0 0 0 .212-.096.294.294 0 0 0 .096-.211v-9.385H5v9.385c0 .077.032.147.096.211a.294.294 0 0 0 .212.096z" fill="#16171D" fill-rule="evenodd"/>
</svg>
