<svg width="24" height="24" viewBox="0 0 24 24" xmlns="http://www.w3.org/2000/svg">
    <path d="m8.4 16.654 3.6-3.6 3.6 3.6 1.054-1.054-3.6-3.6 3.6-3.6L15.6 7.346l-3.6 3.6-3.6-3.6L7.346 8.4l3.6 3.6-3.6 3.6L8.4 16.654zm3.602 4.846a9.254 9.254 0 0 1-3.705-.748 9.596 9.596 0 0 1-3.018-2.03 9.592 9.592 0 0 1-2.03-3.016 9.245 9.245 0 0 1-.749-3.704c0-1.314.25-2.55.748-3.705a9.596 9.596 0 0 1 2.03-3.018 9.592 9.592 0 0 1 3.016-2.03 9.245 9.245 0 0 1 3.704-.749c1.314 0 2.55.25 3.705.748a9.596 9.596 0 0 1 3.017 2.03 9.592 9.592 0 0 1 2.032 3.016 9.245 9.245 0 0 1 .748 3.704c0 1.314-.25 2.55-.748 3.705a9.596 9.596 0 0 1-2.03 3.017 9.592 9.592 0 0 1-3.016 2.032 9.245 9.245 0 0 1-3.704.748z" fill="#16171D" fill-rule="evenodd"/>
</svg>
