<svg width="24" height="24" viewBox="0 0 24 24" xmlns="http://www.w3.org/2000/svg">
    <path d="m6.698 10.445 4.807-7.885 4.808 7.885H6.698zm10.307 11c-1.147 0-2.12-.4-2.918-1.198-.798-.798-1.197-1.77-1.197-2.918 0-1.147.399-2.12 1.197-2.918s1.77-1.197 2.918-1.197c1.148 0 2.12.399 2.919 1.197.798.798 1.197 1.77 1.197 2.918 0 1.148-.4 2.12-1.197 2.918-.798.798-1.771 1.198-2.919 1.198zm-14.115-.5v-7.231h7.23v7.23H2.89zm14.115-1c.732 0 1.351-.253 1.857-.759.506-.505.759-1.124.759-1.857 0-.732-.253-1.35-.759-1.857-.505-.505-1.124-.758-1.856-.758-.733 0-1.352.253-1.857.758-.506.506-.759 1.125-.759 1.857s.253 1.351.758 1.857c.506.506 1.125.759 1.857.759zm-12.615-.5h4.23v-4.231H4.39v4.23zm4.954-10.5h4.323l-2.162-3.477-2.161 3.477z" fill="#16171D" fill-rule="evenodd"/>
</svg>
