<svg width="12" height="12" viewBox="0 0 12 12" xmlns="http://www.w3.org/2000/svg">
    <path d="M6 10.75a4.627 4.627 0 0 1-1.852-.374A4.798 4.798 0 0 1 2.64 9.361a4.796 4.796 0 0 1-1.016-1.508 4.623 4.623 0 0 1-.374-1.852c0-.657.125-1.275.374-1.853.25-.578.588-1.08 1.015-1.508.428-.428.93-.766 1.508-1.016a4.623 4.623 0 0 1 1.852-.374c.657 0 1.275.125 1.853.374.578.25 1.08.588 1.508 1.015.428.428.766.93 1.016 1.508s.374 1.195.374 1.852-.125 1.275-.374 1.853A4.798 4.798 0 0 1 9.361 9.36c-.428.428-.93.766-1.508 1.016a4.623 4.623 0 0 1-1.852.374z" fill="#F5F7FF" fill-rule="evenodd"/>
</svg>
