<svg width="16" height="16" viewBox="0 0 16 16" xmlns="http://www.w3.org/2000/svg">
    <path d="M1.667 11.5v-.831c0-.378.193-.686.58-.924.387-.237.897-.356 1.53-.356.115 0 .225.002.33.006.106.005.207.016.304.033a2.163 2.163 0 0 0-.37 1.214v.858H1.668zm3.166 0v-.858c0-.281.077-.538.231-.772.154-.233.372-.437.653-.613a3.226 3.226 0 0 1 1.01-.396A5.804 5.804 0 0 1 8 8.73c.466 0 .895.044 1.286.132.392.088.728.22 1.01.396.281.176.497.38.646.613.15.234.225.49.225.772v.858H4.833zm7.125 0v-.858c0-.228-.028-.444-.085-.646a2.066 2.066 0 0 0-.258-.568 2.19 2.19 0 0 1 .297-.033 7.14 7.14 0 0 1 .31-.006c.634 0 1.144.116 1.53.35.388.233.581.543.581.93v.831h-2.375zm-8.18-2.639c-.29 0-.539-.103-.746-.31a1.016 1.016 0 0 1-.31-.745c0-.3.104-.55.31-.753.207-.202.455-.303.746-.303.299 0 .55.101.752.303.202.203.303.453.303.753 0 .29-.1.538-.303.745a1.01 1.01 0 0 1-.752.31zm8.444 0c-.29 0-.539-.103-.745-.31a1.016 1.016 0 0 1-.31-.745c0-.3.103-.55.31-.753.206-.202.455-.303.745-.303.3 0 .55.101.752.303.203.203.304.453.304.753 0 .29-.101.538-.304.745a1.01 1.01 0 0 1-.752.31zM8 8.333c-.44 0-.814-.154-1.122-.461a1.527 1.527 0 0 1-.461-1.122c0-.449.154-.825.461-1.128A1.538 1.538 0 0 1 8 5.167c.449 0 .825.151 1.128.455.304.303.455.68.455 1.128 0 .44-.151.814-.455 1.122A1.52 1.52 0 0 1 8 8.333z" fill="#4C5267" fill-rule="evenodd"/>
</svg>
