<svg width="24" height="24" viewBox="0 0 24 24" xmlns="http://www.w3.org/2000/svg">
    <path d="m20.93 17.33-1.5-1.5V4.9c0-.212.071-.39.215-.534a.726.726 0 0 1 .535-.216c.212 0 .39.072.534.216a.726.726 0 0 1 .215.534V17.33zM9.43 5.83l-1.5-1.5v-.15c0-.213.071-.39.215-.534a.726.726 0 0 1 .535-.216c.212 0 .39.072.534.216a.726.726 0 0 1 .215.534v1.65zm3.836 3.836-1.5-1.5V2.18c0-.213.072-.39.215-.534a.726.726 0 0 1 .535-.216c.213 0 .39.072.534.216a.726.726 0 0 1 .216.534v7.486zm3.836 1.843h-1.5V3.18c0-.213.072-.39.216-.534a.726.726 0 0 1 .535-.216c.212 0 .39.072.534.216a.726.726 0 0 1 .215.534v8.329zm1.435 8.373-9.108-9.108v5.321l-4.056-2.84 4.502 6.59c.11.172.256.308.442.407.185.1.383.15.595.15h6.267a2.015 2.015 0 0 0 1.358-.52zM10.912 21.9c-.458 0-.885-.103-1.282-.309a2.697 2.697 0 0 1-.991-.885l-6.25-9.152.408-.392c.265-.266.579-.415.942-.45.363-.033.693.055.992.267l3.198 2.227V9.274L1.71 3.055l1.07-1.07 19.51 19.512-1.069 1.07-1.61-1.61a3.954 3.954 0 0 1-1.104.688 3.42 3.42 0 0 1-1.328.256h-6.267z" fill="#16171D" fill-rule="evenodd"/>
</svg>
