<svg width="24" height="24" viewBox="0 0 24 24" xmlns="http://www.w3.org/2000/svg">
    <path d="M5.585 21c-.46 0-.844-.154-1.152-.462a1.565 1.565 0 0 1-.463-1.153V4.615c0-.46.154-.844.462-1.153A1.565 1.565 0 0 1 5.585 3h7.885l4.5 4.5v3.158l-7.73 7.705V21H5.584zm6.654-.02v-1.259l4.535-4.521 1.265 1.254-4.54 4.527h-1.26zm6.333-5.072-1.24-1.26.776-.777a.817.817 0 0 1 .572-.252.7.7 0 0 1 .546.214l.161.167a.736.736 0 0 1 .208.559.814.814 0 0 1-.246.572l-.777.777zM12.97 8h4l-4-4v4z" fill="#16171D" fill-rule="evenodd"/>
</svg>
