<svg width="24" height="24" viewBox="0 0 24 24" xmlns="http://www.w3.org/2000/svg">
    <path d="M5.654 17.846h5.27v-3.77h-5.27v3.77zm0-4.923h5.27v-6.77h-5.27v6.77zm6.423 4.923h5.27v-6.77h-5.27v6.77zm0-7.923h5.27v-3.77h-5.27v3.77zM4.807 20.5c-.504 0-.932-.175-1.282-.525A1.745 1.745 0 0 1 3 18.692V5.308c0-.505.175-.933.525-1.283.35-.35.778-.525 1.283-.525h13.384c.505 0 .933.175 1.283.525.35.35.525.778.525 1.283v2.077h1.77v1.5H20v2.365h1.77v1.5H20v2.365h1.77v1.5H20v2.077c0 .505-.175.933-.525 1.283-.35.35-.778.525-1.283.525H4.808zm0-1.5h13.385a.294.294 0 0 0 .212-.096.294.294 0 0 0 .096-.212V5.308a.294.294 0 0 0-.096-.212.294.294 0 0 0-.212-.096H4.808a.294.294 0 0 0-.212.096.294.294 0 0 0-.096.212v13.384c0 .077.032.148.096.212a.294.294 0 0 0 .212.096zm-.27-14v14V5z" fill="#16171D" fill-rule="evenodd"/>
</svg>
