<svg width="24" height="24" viewBox="0 0 24 24" xmlns="http://www.w3.org/2000/svg">
    <path d="M19.192 18.5H8.808c-.505 0-.933-.175-1.283-.525A1.745 1.745 0 0 1 7 16.692V3.308c0-.505.175-.933.525-1.283.35-.35.778-.525 1.283-.525h6.942L21 6.75v9.942c0 .505-.175.933-.525 1.283-.35.35-.778.525-1.283.525zM15 7.5V3H8.808a.294.294 0 0 0-.212.096.294.294 0 0 0-.096.212v13.384c0 .077.032.148.096.212a.294.294 0 0 0 .212.096h10.384a.294.294 0 0 0 .212-.096.294.294 0 0 0 .096-.212V7.5H15zm-10.192 15c-.505 0-.933-.175-1.283-.525A1.745 1.745 0 0 1 3 20.692V7.5h1.5v13.192c0 .077.032.148.096.212a.294.294 0 0 0 .212.096H15v1.5H4.808zM8.538 3v4.5V3v14V3z" fill="#16171D" fill-rule="evenodd"/>
</svg>
