<svg width="24" height="24" viewBox="0 0 24 24" xmlns="http://www.w3.org/2000/svg">
    <path d="M5.412 14.824v3.482c0 .063.031.125.094.188s.125.094.188.094h3.482V20H5.694c-.47 0-.87-.165-1.2-.494-.33-.33-.494-.73-.494-1.2v-3.482h1.412zm14.588 0v3.482c0 .47-.165.87-.494 1.2-.33.33-.73.494-1.2.494h-3.482v-1.412h3.482c.063 0 .125-.031.188-.094s.094-.125.094-.188v-3.482H20zM14.4 8v5.368l-1.569 3.303h-1.776l1.59-3.303H9.032V8H14.4zM9.176 4v1.412H5.694c-.063 0-.125.031-.188.094s-.094.125-.094.188v3.482H4V5.694c0-.47.165-.87.494-1.2.33-.33.73-.494 1.2-.494h3.482zm9.13 0c.47 0 .87.165 1.2.494.33.33.494.73.494 1.2v3.482h-1.412V5.694c0-.063-.031-.125-.094-.188s-.125-.094-.188-.094h-3.482V4h3.482z" fill="#16171D" fill-rule="evenodd"/>
</svg>
