<svg width="24" height="24" viewBox="0 0 24 24" xmlns="http://www.w3.org/2000/svg">
    <path d="M1 15.962v-.864c0-.614.328-1.124.985-1.529.656-.405 1.5-.607 2.534-.607.153 0 .316.007.49.022.175.014.36.038.556.072-.156.273-.27.553-.342.84a3.548 3.548 0 0 0-.108.864v1.202H1zm6 0v-1.125c0-.403.117-.772.351-1.106.234-.333.58-.622 1.036-.866a5.797 5.797 0 0 1 1.595-.548 10.244 10.244 0 0 1 2.01-.182c.748 0 1.425.06 2.032.182a5.796 5.796 0 0 1 1.595.548c.457.244.8.533 1.033.866.232.334.348.703.348 1.106v1.125H7zm11.885 0v-1.197c0-.319-.035-.62-.105-.901a3.378 3.378 0 0 0-.315-.808 8.24 8.24 0 0 1 .563-.072c.166-.015.323-.022.472-.022 1.033 0 1.875.201 2.525.604.65.404.975.914.975 1.532v.864h-4.115zm-14.37-3.943a1.36 1.36 0 0 1-1.004-.418 1.376 1.376 0 0 1-.415-1.005c0-.387.14-.718.418-.992a1.381 1.381 0 0 1 1.005-.412c.387 0 .721.137 1.002.412.28.274.421.607.421.998 0 .38-.137.71-.41.993a1.36 1.36 0 0 1-1.018.424zm14.985 0c-.383 0-.716-.141-1-.424a1.36 1.36 0 0 1-.423-.993c0-.391.141-.724.424-.998a1.392 1.392 0 0 1 1.003-.412c.397 0 .733.137 1.008.412.274.274.411.605.411.992 0 .392-.136.727-.409 1.005-.273.279-.61.418-1.014.418zm-7.493-.634a2.127 2.127 0 0 1-1.555-.64 2.106 2.106 0 0 1-.644-1.553c0-.62.213-1.142.64-1.562A2.13 2.13 0 0 1 12 7c.621 0 1.142.21 1.562.628.42.42.63.938.63 1.558 0 .607-.21 1.125-.628 1.554-.419.43-.938.645-1.557.645z" fill="#16171D" fill-rule="evenodd"/>
</svg>
