<svg width="20" height="20" viewBox="0 0 20 20" xmlns="http://www.w3.org/2000/svg">
    <path d="M4.438 17.917 1.33 9.343 5.4 6.907V2.083h2.5v4.824l4.071 2.436-3.109 8.574H4.438zm9.535 0a.605.605 0 0 1-.445-.18.605.605 0 0 1-.18-.446c0-.177.06-.325.18-.445s.268-.18.445-.18h2.709V14.68h-2.709a.605.605 0 0 1-.445-.18.606.606 0 0 1-.18-.445c0-.177.06-.325.18-.445s.268-.18.445-.18h2.709v-1.987h-2.709a.605.605 0 0 1-.445-.18.605.605 0 0 1-.18-.445c0-.177.06-.326.18-.445.12-.12.268-.18.445-.18h2.709V8.205h-2.709a.605.605 0 0 1-.445-.18.606.606 0 0 1-.18-.445c0-.177.06-.326.18-.445.12-.12.268-.18.445-.18h2.709V4.968h-2.709a.605.605 0 0 1-.445-.18.605.605 0 0 1-.18-.445c0-.178.06-.326.18-.446s.268-.18.445-.18h3.19c.42 0 .777.147 1.068.438.292.292.438.648.438 1.07V16.41c0 .421-.146.777-.438 1.07a1.454 1.454 0 0 1-1.069.437h-3.189zm-8.657-1.25h2.667l2.458-6.792-2.824-1.686H5.682L2.858 9.875l2.458 6.792z" fill="#989EB3" fill-rule="evenodd"/>
</svg>
