<svg width="20" height="20" viewBox="0 0 20 20" xmlns="http://www.w3.org/2000/svg">
    <path d="M6.894 2.552c-.798.038-1.343.165-1.82.353a3.67 3.67 0 0 0-1.326.867 3.674 3.674 0 0 0-.863 1.33c-.185.477-.31 1.022-.345 1.82-.035.799-.043 1.056-.04 3.092.005 2.037.014 2.292.053 3.092.038.798.165 1.343.352 1.82.192.493.45.91.867 1.326a3.67 3.67 0 0 0 1.33.863c.478.184 1.023.31 1.821.345.799.035 1.056.043 3.092.04 2.036-.005 2.292-.014 3.092-.052.8-.038 1.342-.165 1.819-.352.493-.193.91-.45 1.327-.867.415-.418.671-.837.862-1.33.185-.478.31-1.023.345-1.82.035-.801.043-1.057.04-3.093-.005-2.037-.014-2.292-.052-3.092-.038-.8-.165-1.343-.352-1.82a3.682 3.682 0 0 0-.867-1.326 3.66 3.66 0 0 0-1.33-.863c-.478-.184-1.023-.31-1.821-.345-.798-.034-1.055-.043-3.092-.04-2.037.005-2.292.013-3.092.052m.087 13.559c-.73-.032-1.128-.154-1.392-.255-.35-.135-.6-.299-.864-.56a2.31 2.31 0 0 1-.563-.861c-.102-.265-.226-.661-.26-1.392-.038-.79-.045-1.028-.05-3.03-.004-2.003.004-2.24.038-3.03.031-.731.154-1.129.255-1.393.135-.35.298-.6.56-.864.261-.263.511-.425.861-.562.264-.103.66-.226 1.392-.26.79-.038 1.028-.046 3.03-.05 2.002-.005 2.24.003 3.03.038.732.031 1.13.153 1.393.255.35.135.6.297.864.559.263.262.426.511.563.862.103.263.226.66.26 1.391.038.791.046 1.028.05 3.03.004 2.002-.003 2.24-.038 3.03-.032.731-.153 1.129-.255 1.394-.135.35-.298.6-.56.863a2.317 2.317 0 0 1-.861.562c-.264.103-.661.227-1.392.261-.79.038-1.028.045-3.03.05-2.003.004-2.24-.004-3.03-.038m6.114-10.12a.9.9 0 1 0 1.8-.002.9.9 0 0 0-1.8.003m-6.947 4.015a3.85 3.85 0 1 0 7.702-.014 3.85 3.85 0 0 0-7.702.014m1.351-.002a2.5 2.5 0 1 1 5-.01 2.5 2.5 0 0 1-5 .01" fill="#4C5267" fill-rule="nonzero"/>
</svg>
