<svg width="24" height="24" viewBox="0 0 24 24" xmlns="http://www.w3.org/2000/svg">
    <path d="M6.425 13.838c.673 0 1.246-.235 1.717-.706a2.337 2.337 0 0 0 .706-1.717c0-.673-.235-1.245-.706-1.716a2.337 2.337 0 0 0-1.717-.707c-.673 0-1.245.236-1.716.707a2.337 2.337 0 0 0-.707 1.716c0 .673.236 1.246.707 1.717a2.337 2.337 0 0 0 1.716.706zm0 2.943c-1.5 0-2.769-.52-3.807-1.558-1.039-1.038-1.558-2.308-1.558-3.808s.52-2.769 1.558-3.807C3.656 6.569 4.925 6.05 6.425 6.05c1.241 0 2.321.351 3.24 1.054.918.702 1.536 1.556 1.853 2.561h8.711l1.735 1.735-2.99 3.317-2.164-1.677-1.913 1.721-1.78-1.596h-1.6c-.326 1.046-.957 1.91-1.89 2.593-.935.682-2.002 1.023-3.202 1.023z" fill="#16171D" fill-rule="evenodd"/>
</svg>
