<svg width="24" height="24" viewBox="0 0 24 24" xmlns="http://www.w3.org/2000/svg">
    <path d="M10.87 16.3H7.3c-1.19 0-2.204-.42-3.042-1.258C3.419 14.203 3 13.189 3 12c0-1.19.42-2.203 1.258-3.042C5.096 8.119 6.11 7.7 7.3 7.7h3.57v1.421H7.3c-.796 0-1.475.28-2.036.843A2.774 2.774 0 0 0 4.42 12c0 .795.28 1.474.843 2.036.561.561 1.24.842 2.036.842h3.57V16.3zm-2.423-3.59v-1.42h7.106v1.42H8.447zm4.683 3.59v-1.422h3.57c.796 0 1.475-.28 2.036-.842.562-.562.843-1.24.843-2.036s-.28-1.475-.843-2.036A2.774 2.774 0 0 0 16.7 9.12h-3.57V7.7h3.57c1.19 0 2.204.42 3.042 1.257C20.581 9.796 21 10.81 21 12c0 1.19-.42 2.203-1.258 3.042-.838.839-1.852 1.258-3.042 1.258h-3.57z" fill="#16171D" fill-rule="evenodd"/>
</svg>
