<svg width="20" height="20" viewBox="0 0 20 20" xmlns="http://www.w3.org/2000/svg">
    <path d="M6.852 13.935c.223 0 .41-.075.56-.226a.762.762 0 0 0 .227-.56.762.762 0 0 0-.226-.562.762.762 0 0 0-.561-.226.762.762 0 0 0-.56.226.762.762 0 0 0-.227.561c0 .223.075.41.226.56.15.152.338.227.56.227zm0-3.148c.223 0 .41-.075.56-.226A.762.762 0 0 0 7.64 10a.762.762 0 0 0-.226-.56.762.762 0 0 0-.561-.227.762.762 0 0 0-.56.226.762.762 0 0 0-.227.561c0 .223.075.41.226.56.15.152.338.227.56.227zm0-3.148c.223 0 .41-.076.56-.226a.762.762 0 0 0 .227-.561.762.762 0 0 0-.226-.56.762.762 0 0 0-.561-.227.762.762 0 0 0-.56.226.762.762 0 0 0-.227.56c0 .224.075.41.226.562.15.15.338.226.56.226zm2.361 6.296h4.722v-1.574H9.213v1.574zm0-3.148h4.722V9.213H9.213v1.574zm0-3.148h4.722V6.065H9.213v1.574zm-4.722 9.444c-.433 0-.804-.154-1.112-.462a1.516 1.516 0 0 1-.462-1.112V4.491c0-.433.154-.804.462-1.112a1.516 1.516 0 0 1 1.112-.462h11.018c.433 0 .804.154 1.112.462.308.308.462.679.462 1.112v11.018c0 .433-.154.804-.462 1.112a1.516 1.516 0 0 1-1.112.462H4.491zm0-1.574h11.018V4.491H4.491v11.018zm.04-11.018v11.018V4.491z" fill="#4C5267" fill-rule="evenodd"/>
</svg>
