<svg width="24" height="25" viewBox="0 0 24 25" xmlns="http://www.w3.org/2000/svg">
    <path d="M5.308 20.833c-.505 0-.933-.175-1.283-.525a1.745 1.745 0 0 1-.525-1.282V5.64c0-.505.175-.933.525-1.283.35-.35.778-.525 1.283-.525h6.702v1.5H5.308a.294.294 0 0 0-.212.096.294.294 0 0 0-.096.212v13.385c0 .076.032.147.096.211a.294.294 0 0 0 .212.096h6.702v1.5H5.308zm10.923-4.23-1.039-1.085 2.435-2.435h-8.53v-1.5h8.53L15.192 9.15l1.039-1.085 4.269 4.27-4.27 4.268z" fill="#16171D" fill-rule="evenodd"/>
</svg>
