<svg width="24" height="24" viewBox="0 0 24 24" xmlns="http://www.w3.org/2000/svg">
    <path d="M10.26 11.32c-.963 0-1.786-.343-2.472-1.028-.685-.686-1.028-1.51-1.028-2.472 0-.963.343-1.786 1.028-2.472.686-.685 1.51-1.028 2.472-1.028s1.786.343 2.472 1.028c.685.686 1.028 1.51 1.028 2.472s-.343 1.786-1.028 2.472c-.686.685-1.51 1.028-2.472 1.028zm-7.5 7.615v-2.223a2.524 2.524 0 0 1 1.465-2.323c.831-.414 1.729-.76 2.693-1.037.964-.278 2.078-.417 3.342-.417h.292c.081 0 .168.01.262.031a5.37 5.37 0 0 0-.251.721c-.066.245-.121.494-.165.748h-.138c-1.151 0-2.17.133-3.058.397-.887.265-1.65.564-2.288.896-.227.121-.393.264-.497.427a1.01 1.01 0 0 0-.157.557v.723h6.3c.074.254.17.512.29.773.118.262.248.504.39.727H2.76zm13.606.74-.223-1.326a3.469 3.469 0 0 1-.673-.277 3.09 3.09 0 0 1-.6-.429l-1.268.44-.711-1.21 1.034-.845a2.857 2.857 0 0 1-.107-.766c0-.251.036-.506.107-.765L12.9 13.63l.712-1.21 1.258.45c.183-.17.381-.312.595-.423.213-.111.44-.202.678-.272l.223-1.327h1.423l.213 1.327c.239.07.465.164.678.28.214.116.412.265.595.447l1.258-.481.712 1.24-1.025.866c.071.24.107.49.107.751 0 .26-.036.51-.107.749l1.034.846-.711 1.21-1.268-.441a3.09 3.09 0 0 1-.6.429c-.21.114-.434.206-.673.277l-.213 1.327h-1.423zm.703-2.509c.523 0 .971-.186 1.344-.56.372-.372.558-.82.558-1.345 0-.523-.186-.972-.559-1.344a1.836 1.836 0 0 0-1.345-.559c-.524 0-.972.187-1.345.56a1.836 1.836 0 0 0-.558 1.345c0 .524.186.972.56 1.344.372.373.82.56 1.345.56zM10.26 9.82c.55 0 1.02-.196 1.412-.588.392-.391.588-.862.588-1.412 0-.55-.196-1.02-.588-1.413a1.926 1.926 0 0 0-1.412-.587c-.55 0-1.02.196-1.413.587A1.926 1.926 0 0 0 8.26 7.82c0 .55.196 1.02.587 1.412.392.392.863.588 1.413.588z" fill="#16171D" fill-rule="evenodd"/>
</svg>
