<svg width="24" height="24" viewBox="0 0 24 24" xmlns="http://www.w3.org/2000/svg">
    <path d="M13.452 5.856H7.91V4.22h7.18l-1.637 1.636zM10.18 9.13H5.455V7.493h6.36L10.18 9.129zm-3.273 3.273H3v-1.637h5.543l-1.636 1.637zm7.22 1.636L12 11.911 7.91 16l2.126 2.128 4.091-4.09zm-.961-3.293 2.127 2.127 4.07-4.07-2.127-2.127-4.07 4.07zm-1.718-.573 4.418 4.418-4.684 4.685c-.327.327-.71.49-1.146.49-.436 0-.818-.163-1.145-.49l-.041-.041-.532.531h-4.09l2.577-2.577-.041-.04c-.328-.328-.491-.71-.491-1.146 0-.437.163-.818.49-1.146l4.685-4.684zm0 0L16.09 5.53c.327-.327.709-.49 1.145-.49.437 0 .819.163 1.146.49l2.127 2.127c.327.328.491.71.491 1.146 0 .436-.164.818-.49 1.145l-4.644 4.643-4.418-4.418z" fill="#16171D" fill-rule="evenodd"/>
</svg>
