<svg width="24" height="24" viewBox="0 0 24 24" xmlns="http://www.w3.org/2000/svg">
    <path d="M3 4.712c0-.447.17-.844.512-1.191C3.854 3.174 4.25 3 4.696 3h14.608c.447 0 .842.174 1.184.52.341.348.512.745.512 1.192v14.592c0 .447-.17.842-.513 1.184-.341.341-.736.512-1.183.512H4.696c-.447 0-.842-.17-1.184-.513-.341-.341-.512-.736-.512-1.183V4.712zm10.067 6.238h-2.1v2.083h2.1V10.95zm0-4.183h-2.1V8.85h2.1V6.767zm-2.1 2.083h-2.1v2.1h2.1v-2.1zm0 4.183h-2.1v2.1h2.1v-2.1zm0-8.366h-2.1v2.1h2.1v-2.1zm2.1 10.466h-2.1v2.1h-2.1v2.1h2.1v-2.1h2.1v-2.1zm-4.2-8.375h-2.1V4.667h-2.1v2.1h2.1v2.089h-2.1v2.088h2.1v2.09h-2.1v2.1h2.1v2.1h-2.1v2.1h2.1v-2.1h2.1v-2.1h-2.1v-2.1h2.1v-2.092h-2.1V8.85h2.1V6.758zm4.2 12.613h-2.1 2.1zm-4.2 0h-2.1 2.1z" fill="#16171D" fill-rule="evenodd"/>
</svg>
