<?xml version="1.0" encoding="UTF-8"?>
<svg width="24px" height="24px" viewBox="0 0 24 24" version="1.1" xmlns="http://www.w3.org/2000/svg" xmlns:xlink="http://www.w3.org/1999/xlink">
    <title>move-to-trash</title>
    <g id="move-to-trash" stroke="none" stroke-width="1" fill="none" fill-rule="evenodd">
        <g id="icon-/-archive-/-outline-copy-10" transform="translate(3.29, 2.845)" fill="#16171D">
            <path d="M4.92075,8.4615 C6.28341667,8.4615 7.445,8.941 8.4055,9.9 C9.36583333,10.8588333 9.846,12.0195833 9.846,13.38225 C9.846,14.7449167 9.3665,15.9065 8.4075,16.867 C7.44866667,17.8273333 6.28791667,18.3075 4.92525,18.3075 C3.56258333,18.3075 2.401,17.828 1.4405,16.869 C0.480166667,15.9101667 4.4408921e-16,14.7494167 4.4408921e-16,13.38675 C4.4408921e-16,12.0240833 0.4795,10.8625 1.4385,9.902 C2.39733333,8.94166667 3.55808333,8.4615 4.92075,8.4615 Z M12.923,8.8817842e-16 L12.923,0.8845 L17.423,0.8845 L17.423,2.3845 L16.423,2.3845 L16.423,15.07675 C16.423,15.5819167 16.248,16.0095 15.898,16.3595 C15.548,16.7095 15.1204167,16.8845 14.61525,16.8845 L10.86525,16.8845 C11.00125,16.6678333 11.1303333,16.43 11.2525,16.171 C11.3748333,15.912 11.4726667,15.6498333 11.546,15.3845 L14.61525,15.3845 C14.69225,15.3845 14.76275,15.3524167 14.82675,15.28825 C14.8909167,15.22425 14.923,15.15375 14.923,15.07675 L14.923,2.3845 L4.923,2.3845 L4.923,6.4615 C4.69816667,6.4615 4.44516667,6.47941667 4.164,6.51525 C3.88283333,6.55108333 3.63583333,6.59791667 3.423,6.65575 L3.423,2.3845 L2.423,2.3845 L2.423,0.8845 L6.923,0.8845 L6.923,8.8817842e-16 L12.923,8.8817842e-16 Z M5.00708987,11.10575 L4.29434981,11.8118969 L5.53505173,13.0629112 L2.47125,13.0629112 L2.47125,14.0772472 L5.52845855,14.0772472 L4.2840374,15.3113559 L5.00708987,16.0344084 L7.47125,13.5700792 L5.00708987,11.10575 Z M12.596,4.3845 L12.596,13.3845 L11.846,13.3845 C11.846,12.5076667 11.721,11.7798333 11.471,11.201 L11.096,10.3325 L11.096,4.3845 L12.596,4.3845 Z M8.75,4.3845 L8.75,7.61525 C8.5375,7.47675 8.29683333,7.33833333 8.028,7.2 C7.75933333,7.0615 7.5,6.957 7.25,6.8865 L7.25,4.3845 L8.75,4.3845 Z" id="Combined-Shape"></path>
        </g>
    </g>
</svg>