<svg width="24" height="24" viewBox="0 0 24 24" xmlns="http://www.w3.org/2000/svg">
    <path d="M5.308 20.5c-.505 0-.933-.175-1.283-.525a1.745 1.745 0 0 1-.525-1.283V5.308c0-.505.175-.933.525-1.283.35-.35.778-.525 1.283-.525h13.384c.505 0 .933.175 1.283.525.35.35.525.778.525 1.283v13.384c0 .505-.175.933-.525 1.283-.35.35-.778.525-1.283.525H5.308zM12 16.308c.633 0 1.208-.184 1.725-.55.517-.367.875-.85 1.075-1.45H19v-9a.3.3 0 0 0-.087-.221.3.3 0 0 0-.22-.087H5.307a.3.3 0 0 0-.221.087.3.3 0 0 0-.087.22v9h4.2c.2.6.558 1.084 1.075 1.45.517.367 1.092.55 1.725.55zm0-2.654L8.346 10 9.4 8.915l1.85 1.85V6.346h1.5v4.42l1.85-1.85L15.654 10 12 13.654z" fill="#16171D" fill-rule="evenodd"/>
</svg>
