<?xml version="1.0" encoding="UTF-8"?>
<svg width="24px" height="24px" viewBox="0 0 24 24" version="1.1" xmlns="http://www.w3.org/2000/svg" xmlns:xlink="http://www.w3.org/1999/xlink">
    <title>move-item</title>
    <g id="move-item" stroke="none" stroke-width="1" fill="none" fill-rule="evenodd">
        <g id="icon-/-archive-/-outline-copy-8" transform="translate(2.12, 3.5)" fill="#16171D" fill-rule="nonzero">
            <g id="move_item_24dp_FILL0_wght300_GRAD0_opsz24-(1)" transform="translate(0, 0)">
                <path d="M16.87125,9.25 L5.077,9.25 L5.077,7.75 L16.87125,7.75 L15.052,5.93075 L16.10575,4.84625 L19.7595,8.5 L16.10575,12.15375 L15.052,11.06925 L16.87125,9.25 Z M11.702,5.36525 L11.702,1.80775 C11.702,1.71791667 11.6731667,1.64416667 11.6155,1.5865 C11.5576667,1.52883333 11.4839167,1.5 11.39425,1.5 L1.80775,1.5 C1.71791667,1.5 1.64416667,1.52883333 1.5865,1.5865 C1.52883333,1.64416667 1.5,1.71791667 1.5,1.80775 L1.5,15.19225 C1.5,15.2820833 1.52883333,15.3558333 1.5865,15.4135 C1.64416667,15.4711667 1.71791667,15.5 1.80775,15.5 L11.39425,15.5 C11.4839167,15.5 11.5576667,15.4711667 11.6155,15.4135 C11.6731667,15.3558333 11.702,15.2820833 11.702,15.19225 L11.702,11.63475 L13.202,11.63475 L13.202,15.19225 C13.202,15.6909167 13.0253333,16.1169167 12.672,16.47025 C12.3188333,16.8234167 11.8929167,17 11.39425,17 L1.80775,17 C1.30908333,17 0.883083333,16.8234167 0.52975,16.47025 C0.176583333,16.1169167 0,15.6909167 0,15.19225 L0,1.80775 C0,1.30908333 0.176583333,0.883083333 0.52975,0.52975 C0.883083333,0.176583333 1.30908333,0 1.80775,0 L11.39425,0 C11.8929167,0 12.3188333,0.176583333 12.672,0.52975 C13.0253333,0.883083333 13.202,1.30908333 13.202,1.80775 L13.202,5.36525 L11.702,5.36525 Z" id="Shape"></path>
            </g>
        </g>
    </g>
</svg>