<svg width="20" height="20" viewBox="0 0 20 20" xmlns="http://www.w3.org/2000/svg">
    <path d="M9.375 14.792h1.25v-2.5h2.5v-1.25h-2.5v-2.5h-1.25v2.5h-2.5v1.25h2.5v2.5zm-4.119 3.125c-.42 0-.777-.146-1.069-.438a1.454 1.454 0 0 1-.437-1.069V3.59c0-.421.146-.777.438-1.07a1.454 1.454 0 0 1 1.068-.437h6.619l4.375 4.375v9.952c0 .421-.146.777-.438 1.07a1.454 1.454 0 0 1-1.068.437H5.256zM11.25 7.083v-3.75H5.256a.245.245 0 0 0-.176.08.245.245 0 0 0-.08.177v12.82c0 .064.027.123.08.176.054.054.112.08.176.08h9.488a.245.245 0 0 0 .176-.08.245.245 0 0 0 .08-.176V7.083h-3.75zm-6.21-3.75v3.75-3.75 13.334V3.333z" fill="#16171D" fill-rule="evenodd"/>
</svg>
