<svg width="24" height="24" viewBox="0 0 24 24" xmlns="http://www.w3.org/2000/svg">
    <path d="M7.504 19.702v-10.4c0-.499.18-.922.538-1.27a1.78 1.78 0 0 1 1.286-.523h10.369c.498 0 .924.177 1.278.53.353.353.53.78.53 1.278v7.48l-4.712 4.712h-7.48c-.5 0-.926-.176-1.279-.53a1.741 1.741 0 0 1-.53-1.277zM2.53 6.432a1.684 1.684 0 0 1 .292-1.348A1.81 1.81 0 0 1 4 4.344l10.234-1.81c.499-.093.948.004 1.348.292.4.288.647.68.74 1.18l.231 1.311h-1.53l-.195-1.096a.248.248 0 0 0-.115-.168.288.288 0 0 0-.212-.044L4.264 5.83a.272.272 0 0 0-.202.125.343.343 0 0 0-.048.24l1.298 7.333v4.455a1.94 1.94 0 0 1-.634-.537 1.733 1.733 0 0 1-.339-.778L2.53 6.433zm6.475 2.885v10.385a.3.3 0 0 0 .087.22.3.3 0 0 0 .221.087h6.692v-4h4V9.317a.3.3 0 0 0-.086-.221.3.3 0 0 0-.221-.087H9.312a.3.3 0 0 0-.221.087.3.3 0 0 0-.087.221z" fill="#16171D" fill-rule="nonzero"/>
</svg>
