<svg width="24" height="24" viewBox="0 0 24 24" xmlns="http://www.w3.org/2000/svg">
    <path d="M4.906 21c-.53 0-.98-.185-1.35-.556-.37-.37-.556-.82-.556-1.35V4.906c0-.53.185-.98.556-1.35.37-.37.82-.556 1.35-.556h14.188c.53 0 .98.185 1.35.556.37.37.556.82.556 1.35v14.188c0 .53-.185.98-.556 1.35-.37.37-.82.556-1.35.556H15.31v-1.588h3.785c.07 0 .141-.036.212-.106.07-.07.106-.141.106-.212V6.706H4.588v12.388c0 .07.036.141.106.212.07.07.141.106.212.106H8.69V21H4.906zm6.3 0v-6.591l-1.959 1.959-1.112-1.139L12 11.34l3.865 3.89-1.112 1.139-1.959-1.96V21h-1.588z" fill="#16171D" fill-rule="evenodd"/>
</svg>
