<svg width="24" height="24" viewBox="0 0 24 24" xmlns="http://www.w3.org/2000/svg">
    <path d="M6.999 13.25c.347 0 .642-.121.886-.364.243-.243.365-.538.365-.885s-.121-.642-.364-.886A1.202 1.202 0 0 0 7 10.75c-.347 0-.642.121-.886.364A1.202 1.202 0 0 0 5.75 12c0 .347.121.642.364.886.243.243.538.365.885.365zm5 0c.347 0 .642-.121.886-.364.243-.243.365-.538.365-.885s-.121-.642-.364-.886A1.202 1.202 0 0 0 12 10.75c-.347 0-.642.121-.886.364a1.202 1.202 0 0 0-.365.885c0 .347.121.642.364.886.243.243.538.365.885.365zm5 0c.347 0 .642-.121.886-.364.243-.243.365-.538.365-.885s-.121-.642-.364-.886A1.202 1.202 0 0 0 17 10.75c-.347 0-.642.121-.886.364a1.202 1.202 0 0 0-.365.885c0 .347.121.642.364.886.243.243.538.365.885.365zm-4.997 8.25a9.254 9.254 0 0 1-3.705-.748 9.596 9.596 0 0 1-3.018-2.03 9.592 9.592 0 0 1-2.03-3.016 9.245 9.245 0 0 1-.749-3.704c0-1.314.25-2.55.748-3.705a9.596 9.596 0 0 1 2.03-3.018 9.592 9.592 0 0 1 3.016-2.03 9.245 9.245 0 0 1 3.704-.749c1.314 0 2.55.25 3.705.748a9.596 9.596 0 0 1 3.017 2.03 9.592 9.592 0 0 1 2.032 3.016 9.245 9.245 0 0 1 .748 3.704c0 1.314-.25 2.55-.748 3.705a9.596 9.596 0 0 1-2.03 3.017 9.592 9.592 0 0 1-3.016 2.032 9.245 9.245 0 0 1-3.704.748z" fill="#16171D" fill-rule="evenodd"/>
</svg>
