<svg width="24" height="24" viewBox="0 0 24 24" xmlns="http://www.w3.org/2000/svg">
    <path d="M12 11.68c-.963 0-1.786-.343-2.472-1.028C8.843 9.966 8.5 9.142 8.5 8.18c0-.963.343-1.786 1.028-2.472.686-.685 1.51-1.028 2.472-1.028s1.786.343 2.472 1.028c.685.686 1.028 1.51 1.028 2.472s-.343 1.786-1.028 2.472c-.686.685-1.51 1.028-2.472 1.028zm-7.5 7.615v-2.223c0-.49.133-.943.399-1.36a2.664 2.664 0 0 1 1.066-.963 14.506 14.506 0 0 1 2.992-1.09 12.95 12.95 0 0 1 6.086 0c1.006.242 2.003.606 2.992 1.09.444.225.8.545 1.066.963.266.417.399.87.399 1.36v2.223h-15zm1.5-1.5h12v-.723a.98.98 0 0 0-.176-.562 1.332 1.332 0 0 0-.478-.422 12.851 12.851 0 0 0-2.635-.965 11.39 11.39 0 0 0-5.422 0c-.895.219-1.774.54-2.635.965-.201.109-.36.25-.478.422a.98.98 0 0 0-.176.562v.723zm6-7.615c.55 0 1.02-.196 1.412-.588.392-.391.588-.862.588-1.412 0-.55-.196-1.02-.588-1.413A1.926 1.926 0 0 0 12 6.18c-.55 0-1.02.196-1.413.587A1.926 1.926 0 0 0 10 8.18c0 .55.196 1.02.587 1.412.392.392.863.588 1.413.588z" fill="#16171D" fill-rule="evenodd"/>
</svg>
