<svg width="24" height="24" viewBox="0 0 24 24" xmlns="http://www.w3.org/2000/svg">
    <path d="M4.06 22a1.983 1.983 0 0 1-1.452-.608A1.983 1.983 0 0 1 2 19.94v-9.272h11.333V22H4.061zm11.345 0v-2.06h2.276V22h-2.276zm4.549 0v-2.06H22c0 .558-.204 1.042-.611 1.449-.407.407-.886.611-1.435.611zM3.403 19.198h8.649l-2.818-3.74-2.077 2.663-1.505-1.936-2.25 3.013zm16.55-1.532v-2.275H22v2.275h-2.046zm0-4.549v-2.275H22v2.275h-2.046zM2 8.595V6.319h2.06v2.276H2zm17.954 0V6.319H22v2.276h-2.046zM2 4.046c0-.55.203-1.028.608-1.435C3.013 2.204 3.498 2 4.06 2v2.046H2zm4.334 0V2h2.275v2.046H6.334zm4.549 0V2h2.275v2.046h-2.275zm4.522 0V2h2.276v2.046h-2.276zm4.549 0V2c.55 0 1.028.204 1.435.611.407.407.611.886.611 1.435h-2.046z" fill="#16171D" fill-rule="evenodd"/>
</svg>
