<svg width="20" height="20" viewBox="0 0 20 20" xmlns="http://www.w3.org/2000/svg">
    <path d="M5.319 17.474v-3.172a7.412 7.412 0 0 1-1.741-2.344 6.409 6.409 0 0 1-.62-2.751c0-1.856.65-3.434 1.95-4.733 1.301-1.3 2.88-1.949 4.738-1.949 1.528 0 2.894.457 4.1 1.37 1.204.913 1.987 2.098 2.347 3.555l.919 3.63a.67.67 0 0 1-.125.612.684.684 0 0 1-.569.274H14.76v2.512c0 .39-.14.726-.418 1.004a1.37 1.37 0 0 1-1.004.418h-1.725v1.574h-1.18V14.72h2.905c.07 0 .128-.023.174-.068a.236.236 0 0 0 .068-.174v-3.692h2.124l-.747-3.049a5.112 5.112 0 0 0-1.936-2.914c-.988-.745-2.113-1.118-3.375-1.118-1.521 0-2.82.532-3.895 1.596-1.075 1.063-1.613 2.356-1.613 3.88 0 .785.161 1.531.482 2.238a5.891 5.891 0 0 0 1.367 1.885l.512.472v3.698h-1.18zm3.714-5.28h1.226l.087-.856c.156-.039.301-.096.437-.171.136-.076.251-.169.347-.28l.769.356.612-1.043-.68-.506c.056-.16.084-.321.084-.481 0-.16-.028-.321-.084-.482l.68-.506-.612-1.043-.769.356a1.265 1.265 0 0 0-.347-.28 1.819 1.819 0 0 0-.437-.171l-.087-.855H9.033l-.088.855c-.155.039-.3.096-.436.171a1.265 1.265 0 0 0-.347.28l-.77-.356-.612 1.043.681.506c-.056.16-.085.321-.085.482 0 .16.029.32.085.48l-.68.507.612 1.043.769-.356c.095.111.211.204.347.28.135.075.281.132.436.171l.088.855zm.612-1.658c-.367 0-.68-.128-.937-.386a1.278 1.278 0 0 1-.386-.938c0-.368.129-.68.386-.938.258-.257.57-.385.938-.385s.68.128.938.386c.257.257.386.57.386.938s-.129.68-.387.938c-.257.257-.57.385-.938.385z" fill="#16171D" fill-rule="evenodd"/>
</svg>
