<svg width="20" height="20" viewBox="0 0 20 20" xmlns="http://www.w3.org/2000/svg">
    <path d="M10.783 16.667v-1.49h1.49v1.49h-1.49zm-1.49-1.49V11.49h1.49v3.687h-1.49zm5.884-2.498V10h1.49v2.679h-1.49zM13.687 10V8.51h1.49V10h-1.49zm-8.864 1.49V10h1.49v1.49h-1.49zM3.333 10V8.51h1.49V10h-1.49zM10 4.823v-1.49h1.49v1.49H10zM4.266 6.87H6.87V4.266H4.266V6.87zm-.933.933v-4.47h4.47v4.47h-4.47zm.933 7.93H6.93V13.13H4.266v2.604zm-.933.934v-4.47h4.53v4.47h-4.53zM13.13 6.87h2.604V4.266H13.13V6.87zm-.933.933v-4.47h4.47v4.47h-4.47zm1.49 8.864v-2.499h-1.49v-1.49h2.98v2.499h1.49v1.49h-2.98zm-2.904-5.177V10h2.904v1.49h-2.904zm-2.98 0V10h-1.49V8.51h4.47V10h-1.49v1.49h-1.49zm.707-3.687v-2.98H10v1.49h1.49v1.49H8.51zM5.026 6.11V5.026H6.11V6.11H5.026zm.053 8.81v-1.083h1.083v1.084H5.08zm8.811-8.81V5.026h1.084V6.11H13.89z" fill="#000" fill-rule="nonzero"/>
</svg>
