<svg width="18" height="18" viewBox="0 0 18 18" xmlns="http://www.w3.org/2000/svg">
    <path d="M3.416 2.625v4.634-.019 7.385-12V6 2.625zm1.647 7.313h2.66a3.774 3.774 0 0 1 .745-1.126H5.063v1.126zm0 3h2.273a3.738 3.738 0 0 1-.084-1.126h-2.19v1.126zM3.606 15.75c-.38 0-.7-.131-.962-.394a1.309 1.309 0 0 1-.394-.962V2.856c0-.38.131-.7.394-.962.262-.263.583-.394.962-.394h5.957L13.5 5.438v2.07a3.16 3.16 0 0 0-.551-.163 6.348 6.348 0 0 0-.574-.086V6H9V2.625H3.606a.22.22 0 0 0-.159.072.22.22 0 0 0-.072.159v11.538c0 .058.024.11.072.159a.22.22 0 0 0 .159.072H8.03c.147.223.312.43.494.618.183.189.381.358.595.507H3.606zM12 13.99c.559 0 1.03-.192 1.414-.576.384-.384.576-.855.576-1.414 0-.559-.192-1.03-.576-1.414A1.923 1.923 0 0 0 12 10.01c-.559 0-1.03.192-1.414.576A1.923 1.923 0 0 0 10.01 12c0 .559.192 1.03.576 1.414.384.384.855.576 1.414.576zm3.825 2.618-2.054-2.054a2.85 2.85 0 0 1-.831.42 3.12 3.12 0 0 1-.94.141c-.865 0-1.6-.303-2.207-.908A3.004 3.004 0 0 1 8.885 12c0-.865.303-1.6.908-2.207A3.004 3.004 0 0 1 12 8.885c.865 0 1.6.303 2.207.908.605.606.908 1.342.908 2.207 0 .325-.047.638-.142.94a2.85 2.85 0 0 1-.419.831l2.054 2.054-.783.783z" fill="#4C5267" fill-rule="evenodd"/>
</svg>
