<svg width="16" height="16" viewBox="0 0 16 16" xmlns="http://www.w3.org/2000/svg">
    <path d="M8 13.442a4.515 4.515 0 0 1-1.821-.37 4.743 4.743 0 0 1-1.478-.997 4.743 4.743 0 0 1-.998-1.478 4.515 4.515 0 0 1-.37-1.821H4.37c0 1.01.353 1.868 1.057 2.573.704.704 1.562 1.056 2.573 1.056s1.869-.352 2.573-1.056c.704-.705 1.057-1.562 1.057-2.573 0-1.012-.353-1.87-1.057-2.574C9.87 5.498 9.011 5.146 8 5.146h-.078l.804.804L8 6.7 5.926 4.627 8 2.553l.726.752-.804.804H8c.648 0 1.255.123 1.821.37a4.743 4.743 0 0 1 1.478.997c.42.42.752.912.998 1.478.247.566.37 1.173.37 1.822 0 .648-.123 1.255-.37 1.82a4.743 4.743 0 0 1-.998 1.479c-.42.419-.912.751-1.478.998a4.515 4.515 0 0 1-1.821.37z" fill="#16171D" fill-rule="evenodd"/>
</svg>
