<svg width="24" height="24" viewBox="0 0 24 24" xmlns="http://www.w3.org/2000/svg">
    <path d="M11 20.335c-1.876-.244-3.428-1.07-4.657-2.48C5.114 16.448 4.5 14.797 4.5 12.905c0-1.017.2-1.99.602-2.922a7.59 7.59 0 0 1 1.686-2.455l1.07 1.07a5.522 5.522 0 0 0-1.39 1.95A6.003 6.003 0 0 0 6 12.904c0 1.466.468 2.76 1.405 3.878C8.34 17.9 9.54 18.585 11 18.835v1.5zm2 .019v-1.5c1.444-.293 2.638-.992 3.583-2.1.945-1.106 1.417-2.39 1.417-3.85 0-1.667-.583-3.084-1.75-4.25-1.167-1.167-2.583-1.75-4.25-1.75h-.354l1.35 1.35-1.054 1.054-3.154-3.154L11.942 3l1.054 1.054-1.35 1.35H12c2.092 0 3.865.727 5.32 2.18 1.453 1.454 2.18 3.228 2.18 5.32 0 1.882-.616 3.524-1.848 4.927-1.232 1.402-2.783 2.243-4.652 2.523z" fill="#16171D" fill-rule="evenodd"/>
</svg>
