<svg width="24" height="24" viewBox="0 0 24 24" xmlns="http://www.w3.org/2000/svg">
    <path d="M10.746 20.947a7.548 7.548 0 0 0 3.986-1.137l-.975-.975a6.106 6.106 0 0 1-1.46.573 6.37 6.37 0 0 1-1.551.19c-1.753 0-3.24-.61-4.461-1.83-1.221-1.222-1.832-2.709-1.832-4.462 0-1.753.61-3.24 1.832-4.46 1.221-1.222 2.708-1.832 4.46-1.832h.654l-1.6 1.6.947 1.01L14.03 6.34l-3.284-3.285-.947 1.01 1.6 1.6h-.653c-2.123 0-3.927.743-5.412 2.229-1.486 1.485-2.229 3.289-2.229 5.411 0 1.061.2 2.055.602 2.982a7.737 7.737 0 0 0 1.635 2.423 7.738 7.738 0 0 0 2.423 1.635 7.42 7.42 0 0 0 2.98.602zm5.393-2.887 4.754-4.754-4.754-4.754-4.753 4.754 4.753 4.754zm0-1.922-2.831-2.832 2.831-2.831 2.832 2.831-2.832 2.832z" fill="#16171D" fill-rule="evenodd"/>
</svg>
