<svg width="24" height="24" viewBox="0 0 24 24" xmlns="http://www.w3.org/2000/svg">
    <path d="M21 6.918v12.176c0 .53-.185.98-.556 1.35-.37.37-.82.556-1.35.556H4.906c-.53 0-.98-.185-1.35-.556-.37-.37-.556-.82-.556-1.35V4.906c0-.53.185-.98.556-1.35.37-.37.82-.556 1.35-.556h12.176L21 6.918zm-9 10.667c.741 0 1.368-.26 1.88-.781.511-.52.767-1.142.767-1.866 0-.74-.256-1.367-.768-1.88-.511-.51-1.138-.767-1.879-.767-.741 0-1.368.256-1.88.768-.511.512-.767 1.138-.767 1.88 0 .723.256 1.345.768 1.865.511.52 1.138.781 1.879.781zM6.044 9.75h8.709V6.044H6.044V9.75z" fill="#16171D" fill-rule="evenodd"/>
</svg>
