<svg width="24" height="24" viewBox="0 0 24 24" xmlns="http://www.w3.org/2000/svg">
    <path d="m19.543 20.597-6.28-6.28c-.5.412-1.075.735-1.725.969-.65.233-1.323.35-2.018.35-1.709 0-3.155-.592-4.34-1.776-1.183-1.183-1.775-2.63-1.775-4.338 0-1.709.592-3.155 1.775-4.34C6.364 3.997 7.81 3.405 9.52 3.405c1.709 0 3.155.592 4.34 1.776 1.184 1.184 1.777 2.63 1.777 4.34 0 .713-.12 1.395-.36 2.045a5.72 5.72 0 0 1-.96 1.697l6.281 6.28-1.054 1.054zM9.52 14.136c1.289 0 2.38-.447 3.274-1.342.895-.894 1.342-1.985 1.342-3.274 0-1.288-.447-2.38-1.342-3.274-.894-.894-1.985-1.341-3.274-1.341-1.288 0-2.38.447-3.274 1.341-.894.895-1.341 1.986-1.341 3.274 0 1.289.447 2.38 1.341 3.274.895.895 1.986 1.342 3.274 1.342z" fill="#16171D" fill-rule="nonzero"/>
</svg>
