<svg width="20" height="20" viewBox="0 0 20 20" xmlns="http://www.w3.org/2000/svg">
    <path d="M3.846 17.338c-.383 0-.704-.129-.96-.386a1.304 1.304 0 0 1-.386-.96V9.517c0-.383.128-.703.385-.96s.578-.386.961-.386h1.987V4.004c0-.383.129-.703.386-.96s.577-.386.96-.386h8.975c.383 0 .704.129.96.386.258.257.386.577.386.96v6.475c0 .383-.128.704-.385.96a1.304 1.304 0 0 1-.961.386h-1.987v4.167c0 .383-.129.703-.386.96a1.304 1.304 0 0 1-.96.386H3.846zm0-.834h8.975a.49.49 0 0 0 .352-.16.49.49 0 0 0 .16-.352v-5.32h-10v5.32a.49.49 0 0 0 .16.352.49.49 0 0 0 .353.16zm10.32-5.512h1.988a.49.49 0 0 0 .352-.16.49.49 0 0 0 .16-.353v-5.32h-10V8.17h6.155c.383 0 .703.129.96.386s.386.577.386.96v1.475z" fill="#989EB3" fill-rule="evenodd"/>
</svg>
