<svg width="24" height="24" viewBox="0 0 24 24" xmlns="http://www.w3.org/2000/svg">
    <path d="M2.88 17.583V6.42h1.288v11.163H2.88zm3.534 0V6.42h1.288v11.163H6.414zm5.086 0c-.434 0-.8-.15-1.101-.45-.301-.301-.451-.669-.451-1.102V7.972c0-.433.15-.8.45-1.101.301-.3.668-.451 1.102-.451h8.058c.434 0 .801.15 1.102.45.3.301.45.669.45 1.102v8.059c0 .433-.15.8-.45 1.101-.3.3-.668.451-1.102.451H11.5zm0-1.288h8.058a.253.253 0 0 0 .182-.083.253.253 0 0 0 .083-.181V7.972a.253.253 0 0 0-.083-.181.253.253 0 0 0-.182-.083H11.5a.253.253 0 0 0-.182.083.253.253 0 0 0-.082.181v8.059c0 .066.027.126.082.181a.253.253 0 0 0 .182.083zm.793-1.817h6.473l-2.035-2.74-1.631 2.146-1.202-1.589-1.605 2.183zm-1.018 1.817V7.708v8.587z" fill="#16171D" fill-rule="evenodd"/>
</svg>
