<svg width="24" height="24" viewBox="0 0 24 24" xmlns="http://www.w3.org/2000/svg">
    <path d="M5.308 20.5c-.505 0-.933-.175-1.283-.525a1.745 1.745 0 0 1-.525-1.283V5.308c0-.505.175-.933.525-1.283.35-.35.778-.525 1.283-.525h13.384c.505 0 .933.175 1.283.525.35.35.525.778.525 1.283v13.384c0 .505-.175.933-.525 1.283-.35.35-.778.525-1.283.525H5.308zm0-1.5h5.942V5H5.308a.294.294 0 0 0-.212.096.294.294 0 0 0-.096.212v13.384c0 .077.032.148.096.212a.294.294 0 0 0 .212.096zm7.442 0h5.942a.294.294 0 0 0 .212-.096.294.294 0 0 0 .096-.212V12h-6.25v7zm0-8.5H19V5.308a.294.294 0 0 0-.096-.212.294.294 0 0 0-.212-.096H12.75v5.5z" fill="#16171D" fill-rule="evenodd"/>
</svg>
