<svg width="24" height="24" viewBox="0 0 24 24" xmlns="http://www.w3.org/2000/svg">
    <path d="M14 20.75V18.7c1.5-.433 2.708-1.267 3.625-2.5C18.542 14.967 19 13.567 19 12c0-1.567-.458-2.967-1.375-4.2S15.5 5.733 14 5.3V3.25c2.067.467 3.75 1.513 5.05 3.138C20.35 8.011 21 9.883 21 12s-.65 3.988-1.95 5.613c-1.3 1.625-2.983 2.67-5.05 3.137zM3 15.025v-6h4l5-5v16l-5-5H3zm11 1v-8.05a4.151 4.151 0 0 1 1.838 1.65c.441.733.662 1.533.662 2.4 0 .85-.22 1.637-.662 2.362A4.173 4.173 0 0 1 14 16.026z" fill="#16171D" fill-rule="evenodd"/>
</svg>
