<svg width="24" height="24" viewBox="0 0 24 24" xmlns="http://www.w3.org/2000/svg">
    <path d="M18.692 3.5c.505 0 .933.175 1.283.525.35.35.525.778.525 1.283v13.384c0 .505-.175.933-.525 1.283-.35.35-.778.525-1.283.525H5.308c-.505 0-.933-.175-1.283-.525a1.745 1.745 0 0 1-.525-1.283V5.308c0-.505.175-.933.525-1.283.35-.35.778-.525 1.283-.525h13.384zM19 9.952l-9.047 9.047h2.829l6.218-6.218V9.952zm0 4.243-4.803 4.804 4.496.001a.3.3 0 0 0 .221-.087.3.3 0 0 0 .087-.22l-.001-4.498zm0-8.485L5.71 18.999h2.828L18.999 8.538V5.71zm-.704-.711h-2.828L4.999 15.467v2.829L18.295 4.999zm-4.242 0h-2.828l-6.226 6.225v2.829l9.054-9.054zm-4.243 0L5.308 5a.3.3 0 0 0-.221.087.3.3 0 0 0-.087.22L4.999 9.81 9.81 4.999z" fill="#16171D" fill-rule="evenodd"/>
</svg>
