<svg width="24" height="24" viewBox="0 0 24 24" xmlns="http://www.w3.org/2000/svg">
    <path d="M19.192 7c.505 0 .933.175 1.283.525.35.35.525.778.525 1.283v7.384c0 .505-.175.933-.525 1.283-.35.35-.778.525-1.283.525H5.808c-.505 0-.933-.175-1.283-.525A1.745 1.745 0 0 1 4 16.192V8.808c0-.505.175-.933.525-1.283.35-.35.778-.525 1.283-.525h13.384zm-3.621 1.499h-2.828l-7.244 7.244.001.45c0 .076.032.147.096.21a.294.294 0 0 0 .212.097l1.763-.001 8-8zm3.928 1.729-6.271 6.271h2.829l3.442-3.442v-2.829zm0 4.243-2.028 2.028 1.721.001a.294.294 0 0 0 .212-.096.294.294 0 0 0 .096-.212l-.001-1.721zM19.192 8.5l-2.207-.001-7.999 8h2.828l7.685-7.685a.292.292 0 0 0-.095-.218.294.294 0 0 0-.212-.096zm-7.863-.001H8.5L5.499 11.5v2.828l5.83-5.829zm-4.243 0L5.808 8.5a.294.294 0 0 0-.212.096.294.294 0 0 0-.096.212l-.001 1.278 1.587-1.587z" fill="#16171D" fill-rule="evenodd"/>
</svg>
