<svg width="24" height="24" viewBox="0 0 24 24" xmlns="http://www.w3.org/2000/svg">
    <path d="M4.327 19.671v-1.5H7.25l-.727-.696c-.822-.76-1.406-1.611-1.753-2.553a8.206 8.206 0 0 1-.52-2.855c0-1.728.506-3.278 1.518-4.649 1.012-1.37 2.34-2.312 3.982-2.824v1.58a6.142 6.142 0 0 0-2.905 2.32 6.216 6.216 0 0 0-1.095 3.573c0 .782.148 1.542.444 2.28.296.736.757 1.418 1.383 2.043l.635.635v-2.738h1.5v5.384H4.326zm9.923-.27v-1.58a6.142 6.142 0 0 0 2.905-2.318 6.216 6.216 0 0 0 1.095-3.574 6.06 6.06 0 0 0-.444-2.279c-.296-.737-.757-1.419-1.383-2.044l-.635-.635V9.71h-1.5V4.325h5.385v1.5H16.75l.727.696c.79.791 1.368 1.65 1.73 2.576.362.926.543 1.87.543 2.832 0 1.728-.506 3.278-1.518 4.649s-2.34 2.312-3.982 2.824z" fill="#16171D" fill-rule="evenodd"/>
</svg>
