<svg width="24" height="24" viewBox="0 0 24 24" xmlns="http://www.w3.org/2000/svg">
    <path d="M14.942 5.414a.931.931 0 0 1-.686-.28.934.934 0 0 1-.28-.686c0-.27.094-.5.28-.686a.934.934 0 0 1 .687-.28c.27 0 .499.094.685.281.187.187.28.415.28.686 0 .27-.094.499-.28.685a.934.934 0 0 1-.686.28zm-.028 15.103a.931.931 0 0 1-.685-.28.934.934 0 0 1-.28-.686c0-.27.094-.499.28-.685a.934.934 0 0 1 .686-.28c.271 0 .5.093.686.28.186.187.28.416.28.686 0 .27-.094.5-.28.685a.934.934 0 0 1-.687.28zm3.79-11.897a.931.931 0 0 1-.686-.28.934.934 0 0 1-.28-.686c0-.27.094-.499.281-.685a.934.934 0 0 1 .686-.28c.27 0 .499.094.685.28.187.187.28.416.28.686 0 .27-.093.5-.28.686a.934.934 0 0 1-.686.28zm-.027 8.718a.931.931 0 0 1-.686-.28.934.934 0 0 1-.28-.686c0-.27.094-.5.28-.685a.934.934 0 0 1 .687-.28c.27 0 .499.093.685.28.186.187.28.415.28.686 0 .27-.094.499-.28.685a.934.934 0 0 1-.686.28zm1.357-4.372a.931.931 0 0 1-.686-.28.934.934 0 0 1-.28-.687c0-.27.094-.499.281-.685a.934.934 0 0 1 .686-.28c.27 0 .499.094.685.28.187.187.28.416.28.686 0 .271-.093.5-.28.686a.934.934 0 0 1-.686.28zM12 21a8.763 8.763 0 0 1-3.509-.709 9.091 9.091 0 0 1-2.858-1.923A9.087 9.087 0 0 1 3.71 15.51 8.759 8.759 0 0 1 3 12c0-1.244.236-2.414.709-3.51a9.091 9.091 0 0 1 1.923-2.858A9.089 9.089 0 0 1 8.49 3.71 8.762 8.762 0 0 1 12 3v1.421c-2.116 0-3.908.734-5.376 2.203C5.155 8.092 4.42 9.884 4.42 12c0 2.116.734 3.908 2.203 5.376C8.092 18.845 9.884 19.58 12 19.58v1.42zm0-7.342c-.46 0-.852-.161-1.174-.484A1.599 1.599 0 0 1 10.342 12c0-.097.007-.192.021-.285a.86.86 0 0 1 .087-.267L8.548 9.537l.989-.99 1.91 1.903c.07-.028.254-.064.553-.108.46 0 .852.161 1.174.484.323.322.484.714.484 1.174 0 .46-.161.852-.484 1.174a1.599 1.599 0 0 1-1.174.484z" fill="#16171D" fill-rule="evenodd"/>
</svg>
