<svg width="20" height="20" viewBox="0 0 20 20" xmlns="http://www.w3.org/2000/svg">
    <path d="m7.345 18.221-1.488-2.506-2.823-.619.275-2.907L1.396 10l1.913-2.189-.275-2.907 2.823-.618 1.488-2.507 2.657 1.128 2.657-1.128 1.487 2.507 2.823.618-.275 2.907 1.913 2.19-1.913 2.188.275 2.907-2.823.619-1.487 2.506-2.657-1.128-2.657 1.128zm.532-1.596 2.125-.9 2.15.9 1.183-2 2.292-.525-.209-2.35L16.96 10l-1.542-1.775.209-2.35-2.292-.5-1.208-2-2.125.9-2.151-.9-1.183 2-2.291.5.208 2.35L3.043 10l1.542 1.75-.208 2.375 2.291.5 1.209 2zm1.25-3.955 4.42-4.42-.879-.904-3.541 3.542-1.792-1.766-.878.878 2.67 2.67z" fill="#989EB3" fill-rule="evenodd"/>
</svg>
