<svg width="24" height="24" viewBox="0 0 24 24" xmlns="http://www.w3.org/2000/svg">
    <path d="M4.548 19.5c-.505 0-.933-.175-1.283-.525a1.745 1.745 0 0 1-.525-1.283V6.308c0-.505.175-.933.525-1.283.35-.35.778-.525 1.283-.525h11.384c.505 0 .933.175 1.283.525.35.35.525.778.525 1.283v4.577l3.52-3.52v9.27l-3.52-3.52v4.577c0 .505-.175.933-.525 1.283-.35.35-.778.525-1.283.525H4.548zm0-1.5h11.384a.3.3 0 0 0 .221-.087.3.3 0 0 0 .087-.22V6.307a.3.3 0 0 0-.087-.221.3.3 0 0 0-.22-.087H4.547a.3.3 0 0 0-.221.087.3.3 0 0 0-.087.22v11.385a.3.3 0 0 0 .087.221.3.3 0 0 0 .22.087zm-.27 0V6v12z" fill="#16171D" fill-rule="evenodd"/>
</svg>
