<svg width="20" height="20" viewBox="0 0 20 20" xmlns="http://www.w3.org/2000/svg">
    <path d="M2.917 16.153v-1.25h14.166v1.25H2.917zm0-11.057v-1.25h14.166v1.25H2.917zm1.506 7.82c-.42 0-.777-.146-1.069-.437a1.454 1.454 0 0 1-.437-1.07V8.59c0-.42.146-.777.437-1.069a1.454 1.454 0 0 1 1.07-.437h11.153c.42 0 .777.146 1.069.438.291.291.437.647.437 1.068v2.82c0 .422-.146.778-.437 1.07a1.454 1.454 0 0 1-1.07.437H4.424zm0-1.25h11.154a.245.245 0 0 0 .176-.08.245.245 0 0 0 .08-.176V8.59a.245.245 0 0 0-.08-.177.245.245 0 0 0-.176-.08H4.423a.245.245 0 0 0-.176.08.245.245 0 0 0-.08.176v2.82c0 .065.026.124.08.177.053.054.112.08.176.08zm-.217-3.333v3.333-3.333z" fill="#989EB3" fill-rule="evenodd"/>
</svg>
