<svg width="20" height="20" viewBox="0 0 20 20" xmlns="http://www.w3.org/2000/svg">
    <path d="M4.327 17.704c-.42 0-.777-.146-1.069-.437a1.454 1.454 0 0 1-.437-1.07v-3.23l2.484-2.812.89.89-2.035 2.3h11.68l-1.994-2.258.891-.89 2.443 2.77v3.23c0 .422-.146.778-.438 1.07a1.454 1.454 0 0 1-1.069.437H4.327zm0-1.25h11.346c.07 0 .13-.025.18-.076.051-.05.077-.11.077-.18v-1.603H4.07v1.603c0 .07.026.13.077.18.05.05.11.076.18.076zm4.64-4.976L6.254 8.75a1.415 1.415 0 0 1-.43-1.065c.008-.417.158-.772.45-1.065l3.867-3.867A1.5 1.5 0 0 1 11.21 2.3a1.41 1.41 0 0 1 1.067.427l2.72 2.72c.294.294.444.645.453 1.055.008.41-.134.762-.426 1.055l-3.935 3.934a1.424 1.424 0 0 1-1.06.433 1.468 1.468 0 0 1-1.061-.446zM14.11 6.7c.042-.043.064-.105.064-.185s-.022-.141-.064-.184l-2.705-2.705c-.043-.043-.104-.064-.185-.064-.08 0-.141.021-.184.064L7.144 7.518c-.042.043-.064.105-.064.185s.022.141.064.184l2.706 2.705c.042.043.104.064.184.064s.141-.021.184-.064L14.111 6.7zm-10 9.754v-1.859 1.86z" fill="#16171D" fill-rule="evenodd"/>
</svg>
