<svg width="16" height="16" viewBox="0 0 16 16" xmlns="http://www.w3.org/2000/svg">
    <path d="M3.333 14c-.366 0-.68-.13-.941-.392A1.284 1.284 0 0 1 2 12.667v-4h1.333v4h4V14h-4zm5.334 0v-1.333h4v-4H14v4c0 .366-.13.68-.392.941a1.284 1.284 0 0 1-.941.392h-4zM4 11.333l2-2.666 1.5 2L9.5 8l2.5 3.333H4zm-2-4v-4c0-.366.13-.68.392-.941.26-.261.575-.392.941-.392h4v1.333h-4v4H2zm10.667 0v-4h-4V2h4c.366 0 .68.13.941.392.261.26.392.575.392.941v4h-1.333zm-2.334-.666a.971.971 0 0 1-.716-.284.971.971 0 0 1-.284-.716.971.971 0 0 1 1-1c.29 0 .528.094.717.283a.971.971 0 0 1 .283.717.971.971 0 0 1-.283.716.971.971 0 0 1-.717.284z" fill="#4C5267" fill-rule="evenodd"/>
</svg>
