<svg width="24" height="24" viewBox="0 0 24 24" xmlns="http://www.w3.org/2000/svg">
    <path d="M12 15.288 15.288 12 12 8.712l-.688.688 2.1 2.1H8.5v1h4.912l-2.1 2.1.688.688zM12.003 21a8.772 8.772 0 0 1-3.51-.708 9.095 9.095 0 0 1-2.859-1.924 9.085 9.085 0 0 1-1.925-2.856A8.754 8.754 0 0 1 3 12.003c0-1.244.236-2.414.708-3.51a9.095 9.095 0 0 1 1.924-2.859 9.085 9.085 0 0 1 2.856-1.925A8.754 8.754 0 0 1 11.997 3c1.244 0 2.414.236 3.51.708a9.095 9.095 0 0 1 2.859 1.924 9.085 9.085 0 0 1 1.925 2.856A8.754 8.754 0 0 1 21 11.997a8.772 8.772 0 0 1-.708 3.51 9.095 9.095 0 0 1-1.924 2.859 9.085 9.085 0 0 1-2.856 1.925 8.754 8.754 0 0 1-3.509.709zM12 20c2.233 0 4.125-.775 5.675-2.325C19.225 16.125 20 14.233 20 12c0-2.233-.775-4.125-2.325-5.675C16.125 4.775 14.233 4 12 4c-2.233 0-4.125.775-5.675 2.325C4.775 7.875 4 9.767 4 12c0 2.233.775 4.125 2.325 5.675C7.875 19.225 9.767 20 12 20z" fill="#16171D" fill-rule="evenodd"/>
</svg>
