<svg width="24" height="24" viewBox="0 0 24 24" xmlns="http://www.w3.org/2000/svg">
    <path d="M3.537 17.5v-12 12zm.27 1.5c-.504 0-.932-.175-1.282-.525A1.745 1.745 0 0 1 2 17.192V5.808c0-.505.175-.933.525-1.283.35-.35.778-.525 1.283-.525h5.49l2 2h7.894c.505 0 .933.175 1.283.525.35.35.525.778.525 1.283v2.829a2.892 2.892 0 0 0-.742-.186 3.219 3.219 0 0 0-.758.003V7.808a.294.294 0 0 0-.096-.212.294.294 0 0 0-.212-.096h-8.507l-2-2H3.808a.3.3 0 0 0-.221.087.3.3 0 0 0-.087.22v11.385c0 .077.032.148.096.212a.294.294 0 0 0 .212.096h7.677l-.062.061V19H3.808zm9.808 2v-2.642l5.43-5.404c.124-.125.258-.212.403-.263.145-.05.29-.076.435-.076.155 0 .306.03.454.089.149.059.282.147.4.265l.924.935c.108.124.192.259.25.404.06.145.089.29.089.434 0 .145-.027.293-.08.443-.055.15-.14.287-.259.411L16.258 21h-2.643zm7.193-6.258-.925-.934.925.934zm-6 5.066h.95l3.246-3.262-.46-.475-.465-.47-3.271 3.257v.95zm3.736-3.737-.465-.47.925.945-.46-.475z" fill="#16171D" fill-rule="evenodd"/>
</svg>
