<svg width="24" height="24" viewBox="0 0 24 24" xmlns="http://www.w3.org/2000/svg">
    <path d="M7.308 20.365a2.234 2.234 0 0 1-1.635-.668A2.2 2.2 0 0 1 5 18.074V5.908c0-.641.224-1.186.673-1.635A2.225 2.225 0 0 1 7.308 3.6h9.434v13.507H7.308a.966.966 0 0 0-.697.277.918.918 0 0 0-.287.688c0 .274.095.504.287.69.192.186.424.28.697.28h11.368V5.364H20v15H7.308zm2.273-4.582h5.838V4.923H9.58v10.86zm-1.323 0V4.923h-.95a.944.944 0 0 0-.702.288.957.957 0 0 0-.282.697v10.131c.152-.072.308-.133.468-.182.16-.05.331-.074.516-.074h.95zM6.362 4.923V16.04 4.924z" fill="#16171D" fill-rule="evenodd"/>
</svg>
