<svg width="24" height="24" viewBox="0 0 24 24" xmlns="http://www.w3.org/2000/svg">
    <path d="M13.615 21v-2.642l5.43-5.404c.124-.118.258-.204.403-.258a1.22 1.22 0 0 1 .89.008c.148.059.28.147.398.265l.925.935c.108.124.192.259.25.404.06.145.089.29.089.434 0 .145-.025.293-.076.443-.05.15-.138.287-.263.411L16.258 21h-2.643zm6.268-5.292.925-.966-.925-.934-.95.95.95.95zM3.808 19c-.505 0-.933-.175-1.283-.525A1.745 1.745 0 0 1 2 17.192V5.808c0-.505.175-.933.525-1.283.35-.35.778-.525 1.283-.525h5.49l2 2h7.894c.505 0 .933.175 1.283.525.35.35.525.778.525 1.283v2.829a2.92 2.92 0 0 0-.58-.163 3.532 3.532 0 0 0-.597-.051c-.422 0-.826.077-1.212.23-.385.155-.739.382-1.06.683l-6.128 6.11V19H3.808z" fill="#16171D" fill-rule="evenodd"/>
</svg>
