<svg width="24" height="24" viewBox="0 0 24 24" xmlns="http://www.w3.org/2000/svg">
    <path d="m14.015 19.916-3.273-3.356 3.273-3.362 1.158 1.095-1.354 1.392h2.78c.585 0 1.078-.201 1.477-.603.4-.402.599-.896.599-1.482s-.2-1.08-.6-1.484a1.997 1.997 0 0 0-1.477-.606H3.7V9.885h12.898c1.008 0 1.877.367 2.607 1.102.73.735 1.095 1.606 1.095 2.613 0 1.025-.36 1.912-1.083 2.661-.721.75-1.595 1.124-2.619 1.124H13.82l1.354 1.412-1.158 1.119zM3.7 17.31v-1.625h4.083v1.625H3.7zm0-11.6V4.085h15.658V5.71H3.7z" fill="#16171D" fill-rule="evenodd"/>
</svg>
