<svg width="24" height="24" viewBox="0 0 24 24" xmlns="http://www.w3.org/2000/svg">
    <path d="M7 16.885c.251 0 .462-.085.63-.255.17-.17.255-.38.255-.63 0-.252-.085-.462-.255-.63a.858.858 0 0 0-.63-.255c-.252 0-.462.085-.63.255a.858.858 0 0 0-.255.63c0 .251.085.462.255.63.17.17.38.255.63.255zm-.75-3.5h1.5V7.25h-1.5v6.135zm5 3.365h6.5v-1.5h-6.5v1.5zm0-4h6.5v-1.5h-6.5v1.5zm0-4h6.5v-1.5h-6.5v1.5zM4.308 20.5c-.505 0-.933-.175-1.283-.525a1.745 1.745 0 0 1-.525-1.283V5.308c0-.505.175-.933.525-1.283.35-.35.778-.525 1.283-.525h15.384c.505 0 .933.175 1.283.525.35.35.525.778.525 1.283v13.384c0 .505-.175.933-.525 1.283-.35.35-.778.525-1.283.525H4.308z" fill="#16171D" fill-rule="evenodd"/>
</svg>
