<svg width="24" height="24" viewBox="0 0 24 24" xmlns="http://www.w3.org/2000/svg">
    <path d="M17.958 12.77v-1.5h3.616v1.5h-3.616zm1.143 6.73-2.893-2.17.912-1.195 2.892 2.169-.911 1.196zM17.08 7.865 16.17 6.67 19.062 4.5l.912 1.196-2.893 2.17zM5.247 18.5v-3.904h-1.02c-.498 0-.924-.177-1.277-.53a1.742 1.742 0 0 1-.53-1.278V11.25c0-.499.177-.925.53-1.278.353-.353.779-.53 1.278-.53h3.865l4.48-2.673v10.5l-4.48-2.673H6.747V18.5h-1.5zm5.827-3.896v-5.17l-2.566 1.508h-4.28a.294.294 0 0 0-.212.096.294.294 0 0 0-.096.212v1.538c0 .077.032.148.096.212a.294.294 0 0 0 .212.096h4.28l2.566 1.508zm2.884.534V8.9c.393.355.709.803.948 1.342.24.54.36 1.132.36 1.777s-.12 1.237-.36 1.777c-.24.54-.555.987-.948 1.342z" fill="#16171D" fill-rule="evenodd"/>
</svg>
