<svg width="24" height="24" viewBox="0 0 24 24" xmlns="http://www.w3.org/2000/svg">
    <path d="M4.808 20.5c-.505 0-.933-.175-1.283-.525A1.745 1.745 0 0 1 3 18.692V5.308c0-.505.175-.933.525-1.283.35-.35.778-.525 1.283-.525h8.557V5H4.808a.294.294 0 0 0-.212.096.294.294 0 0 0-.096.212v13.384c0 .077.032.148.096.212a.294.294 0 0 0 .212.096h13.384a.294.294 0 0 0 .212-.096.294.294 0 0 0 .096-.212v-7.557H20v7.557c0 .505-.175.933-.525 1.283-.35.35-.778.525-1.283.525H4.808zm3.332-6.204 3.566-3.556H9.1v-1.5h5.15v5.15h-1.5v-2.58l-3.556 3.555-1.054-1.069zm10.148-5.373a2.617 2.617 0 0 1-1.923-.788 2.617 2.617 0 0 1-.788-1.923c0-.757.263-1.398.788-1.924a2.617 2.617 0 0 1 1.923-.788c.757 0 1.398.263 1.923.788.526.526.789 1.167.789 1.924 0 .756-.263 1.397-.789 1.923a2.617 2.617 0 0 1-1.923.788z" fill="#16171D" fill-rule="evenodd"/>
</svg>
