<svg width="20" height="20" viewBox="0 0 20 20" xmlns="http://www.w3.org/2000/svg">
    <path d="M7.167 7.875V6.458h6.375v1.417H7.167zm0 2.125V8.583h6.375V10H7.167zm2.125 5.708H4.333h4.959zm0 1.375h-4.25a2.05 2.05 0 0 1-1.506-.62 2.05 2.05 0 0 1-.62-1.505v-2.125h2.126V2.917h10.625v6.392a2.68 2.68 0 0 0-1.417.248V4.333H6.458v8.5h4.25L9.292 14.25H4.333v.708c0 .201.068.37.204.505a.685.685 0 0 0 .505.204h4.25v1.416zm1.416 0v-2.178l3.914-3.896a.965.965 0 0 1 .354-.23c.13-.047.26-.07.39-.07a1.066 1.066 0 0 1 .761.318l.655.655c.095.107.169.225.222.354.053.13.08.26.08.39s-.024.263-.072.398a.95.95 0 0 1-.23.364l-3.896 3.895h-2.178zm5.313-4.657-.655-.655.655.655zm-4.25 3.595h.673l2.142-2.16-.318-.337-.337-.319-2.16 2.143v.673zm2.497-2.497-.337-.319.655.655-.318-.336z" fill="#4C5267" fill-rule="evenodd"/>
</svg>
