<svg width="24" height="24" viewBox="0 0 24 24" xmlns="http://www.w3.org/2000/svg">
    <path d="M18.73 3a2.41 2.41 0 0 1 1.771.73 2.41 2.41 0 0 1 .73 1.77c0 .568-.165 1.068-.496 1.5-.33.434-.748.728-1.254.883v8.465c.506.165.924.464 1.254.895.33.432.496.927.496 1.488a2.41 2.41 0 0 1-.73 1.77 2.41 2.41 0 0 1-1.77.73c-.56 0-1.056-.165-1.488-.496a2.543 2.543 0 0 1-.895-1.254H7.883a2.543 2.543 0 0 1-.896 1.254c-.431.33-.927.496-1.487.496a2.41 2.41 0 0 1-1.77-.73 2.41 2.41 0 0 1-.73-1.77c0-.56.165-1.056.495-1.488.33-.431.749-.73 1.255-.895V7.883a2.543 2.543 0 0 1-1.255-.896A2.381 2.381 0 0 1 3 5.5c0-.694.243-1.285.73-1.77A2.41 2.41 0 0 1 5.5 3c.56 0 1.056.165 1.487.495.432.33.73.749.896 1.255h8.465c.155-.506.45-.925.882-1.255.433-.33.933-.495 1.5-.495zm0 14.73a.968.968 0 0 0-.712.288.968.968 0 0 0-.287.713c0 .283.096.52.287.712.192.192.43.288.713.288s.52-.096.712-.288a.968.968 0 0 0 .288-.712.968.968 0 0 0-.288-.713.968.968 0 0 0-.712-.287zm-13.23 0a.968.968 0 0 0-.713.288.968.968 0 0 0-.287.713c0 .283.096.52.287.712.192.192.43.288.713.288s.52-.096.712-.288a.968.968 0 0 0 .288-.712.968.968 0 0 0-.288-.713.968.968 0 0 0-.712-.287zM17.39 7.62l-9.775 9.776c.112.18.201.375.268.586l1.974-.001 8.123-8.122V7.883a2.438 2.438 0 0 1-.59-.264zm.59 3.652-6.708 6.709H14.1l3.88-3.88v-2.829zm0 4.244-2.466 2.465h.834a2.466 2.466 0 0 1 1.633-1.632l-.001-.833zM16.348 6.25l-1.831-.001-8.268 8.268.001 1.831c.245.077.47.186.672.325l9.746-9.746a2.42 2.42 0 0 1-.32-.677zm-3.245-.001h-2.828l-4.026 4.025v2.829l6.854-6.854zm-4.243 0-.977.001A2.466 2.466 0 0 1 6.25 7.883l-.001.977L8.86 6.249zM5.5 4.5a.968.968 0 0 0-.713.287.968.968 0 0 0-.287.713c0 .283.096.52.287.712.192.192.43.288.713.288s.52-.096.712-.288A.968.968 0 0 0 6.5 5.5a.968.968 0 0 0-.288-.713A.968.968 0 0 0 5.5 4.5zm13.23 0a.968.968 0 0 0-.712.287.968.968 0 0 0-.287.713c0 .283.096.52.287.712.192.192.43.288.713.288s.52-.096.712-.288a.968.968 0 0 0 .288-.712.968.968 0 0 0-.288-.713.968.968 0 0 0-.712-.287z" fill="#16171D" fill-rule="evenodd"/>
</svg>
