<svg width="24" height="24" viewBox="0 0 24 24" xmlns="http://www.w3.org/2000/svg">
    <path d="m2.78 1.986 19.51 19.511-1.068 1.07-1.61-1.61a3.954 3.954 0 0 1-1.105.688 3.42 3.42 0 0 1-1.328.256h-6.267c-.455 0-.882-.103-1.28-.309a2.693 2.693 0 0 1-.993-.885l-6.25-9.152.408-.392c.265-.266.579-.415.942-.45.363-.033.693.055.992.267l3.198 2.227V9.274L1.71 3.055l1.07-1.07zM20.93 17.33l-5.837-5.821h.51V3.18c0-.213.071-.391.215-.535a.726.726 0 0 1 .534-.215c.213 0 .391.072.535.215a.726.726 0 0 1 .215.535v8.329h2.327V4.9c0-.213.072-.39.216-.534a.726.726 0 0 1 .534-.216c.213 0 .391.072.535.216a.726.726 0 0 1 .215.534V17.33zm-7.664-7.664-1.5-1.5V2.18c0-.213.072-.391.215-.535a.726.726 0 0 1 .535-.215c.213 0 .39.072.534.215a.726.726 0 0 1 .216.535v7.486zM9.429 5.83l-1.5-1.5v-.15c0-.213.072-.391.216-.535a.726.726 0 0 1 .534-.215c.213 0 .391.072.535.215a.726.726 0 0 1 .215.535v1.65z" fill="#16171D" fill-rule="evenodd"/>
</svg>
