<svg width="24" height="24" viewBox="0 0 24 24" xmlns="http://www.w3.org/2000/svg">
    <path d="m12.796 13.75-1.77 1.77 1.055 1.053L15.654 13 12.08 9.427l-1.054 1.054 1.77 1.769h-4.45v1.5h4.45zM4.308 19.5c-.505 0-.933-.175-1.283-.525a1.745 1.745 0 0 1-.525-1.283V6.308c0-.505.175-.933.525-1.283.35-.35.778-.525 1.283-.525h5.49l2 2h7.894c.505 0 .933.175 1.283.525.35.35.525.778.525 1.283v9.384c0 .505-.175.933-.525 1.283-.35.35-.778.525-1.283.525H4.308zm0-1.5h15.384a.3.3 0 0 0 .221-.087.3.3 0 0 0 .087-.22V8.307a.3.3 0 0 0-.087-.221.3.3 0 0 0-.22-.087h-8.508l-2-2H4.308a.3.3 0 0 0-.221.087.3.3 0 0 0-.087.22v11.385a.3.3 0 0 0 .087.221.3.3 0 0 0 .22.087zm-.27 0V6v12z" fill="#16171D" fill-rule="evenodd"/>
</svg>
