<svg width="24" height="24" viewBox="0 0 24 24" xmlns="http://www.w3.org/2000/svg">
    <path d="M5.58 21c-.46 0-.844-.154-1.152-.462a1.565 1.565 0 0 1-.463-1.153V4.615c0-.46.154-.844.463-1.153A1.565 1.565 0 0 1 5.58 3h7.885l4.5 4.5v3.596h-1V8h-4V4H5.58a.588.588 0 0 0-.423.192.588.588 0 0 0-.192.423v14.77c0 .153.064.294.192.423.129.128.27.192.423.192h4.654v1H5.58zm-.577-1V4v16zm11.339-5.437.633.614-3.856 3.85v1.05h1.05l3.856-3.85.627.627-4.108 4.108h-2.31v-2.29l4.108-4.109zm2.31 2.29-2.31-2.29 1.161-1.161a.82.82 0 0 1 .575-.217c.226 0 .411.072.556.217l1.18 1.179c.144.145.216.33.216.556a.82.82 0 0 1-.217.575l-1.161 1.142z" fill="#16171D" fill-rule="evenodd"/>
</svg>
