<svg width="24" height="25" viewBox="0 0 24 25" xmlns="http://www.w3.org/2000/svg">
    <path d="M5.308 20.722c-.505 0-.933-.175-1.283-.525a1.745 1.745 0 0 1-.525-1.283v-3.557H5v3.557c0 .077.032.148.096.212a.294.294 0 0 0 .212.096h13.384a.294.294 0 0 0 .212-.096.294.294 0 0 0 .096-.212V5.53a.294.294 0 0 0-.096-.212.294.294 0 0 0-.212-.096H5.308a.294.294 0 0 0-.212.096A.294.294 0 0 0 5 5.53v3.558H3.5V5.53c0-.505.175-.933.525-1.283.35-.35.778-.525 1.283-.525h13.384c.505 0 .933.175 1.283.525.35.35.525.778.525 1.283v13.384c0 .506-.175.933-.525 1.283-.35.35-.778.525-1.283.525H5.308zm5.365-4.038L9.62 15.599l2.627-2.627H3.5v-1.5h8.746L9.62 8.845l1.054-1.084 4.462 4.461-4.462 4.462z" fill="#16171D" fill-rule="evenodd"/>
</svg>
