<svg width="24" height="24" viewBox="0 0 24 24" xmlns="http://www.w3.org/2000/svg">
    <path d="M12 14.941a.784.784 0 0 0 .808-.807.784.784 0 0 0-.808-.808.784.784 0 0 0-.808.808.784.784 0 0 0 .808.807zm-.75-3.48h1.5V5.422h-1.5v6.039zM2.5 21.268V4.538c0-.505.175-.933.525-1.283.35-.35.778-.525 1.283-.525h15.384c.505 0 .933.175 1.283.525.35.35.525.778.525 1.283v11.384c0 .505-.175.933-.525 1.283-.35.35-.778.525-1.283.525H6.038L2.5 21.268zm2.9-5.038h14.292a.294.294 0 0 0 .212-.096.294.294 0 0 0 .096-.212V4.538a.294.294 0 0 0-.096-.212.294.294 0 0 0-.212-.096H4.308a.294.294 0 0 0-.212.096.294.294 0 0 0-.096.212v13.077l1.4-1.385zm-1.363 0v-12 12z" fill="#16171D" fill-rule="evenodd"/>
</svg>
