<svg width="24" height="24" viewBox="0 0 24 24" xmlns="http://www.w3.org/2000/svg">
    <path d="M2.5 21.268V4.538c0-.505.175-.933.525-1.283.35-.35.778-.525 1.283-.525h15.384c.505 0 .933.175 1.283.525.35.35.525.778.525 1.283v11.384c0 .505-.175.933-.525 1.283-.35.35-.778.525-1.283.525H6.038L2.5 21.268zm9.5-6.327c.229 0 .42-.077.575-.232a.781.781 0 0 0 .233-.575.782.782 0 0 0-.233-.576.781.781 0 0 0-.575-.232.781.781 0 0 0-.575.232.782.782 0 0 0-.233.576c0 .229.078.42.232.575a.781.781 0 0 0 .576.232zm-.75-3.48h1.5V5.422h-1.5v6.039z" fill="#16171D" fill-rule="evenodd"/>
</svg>
