<svg width="24" height="24" viewBox="0 0 24 24" xmlns="http://www.w3.org/2000/svg">
    <path d="m5.638 17.658 2.349-4.087a.625.625 0 0 1-.202.067c-.077.013-.154.02-.231.02-1.017 0-1.88-.358-2.59-1.074a3.533 3.533 0 0 1-1.064-2.58c0-1.017.355-1.88 1.064-2.59.71-.71 1.573-1.064 2.59-1.064 1.005 0 1.865.355 2.58 1.064.716.71 1.074 1.572 1.074 2.586 0 .354-.043.682-.128.985-.085.302-.21.59-.374.865L7.36 17.658H5.638zm8.885 0 2.348-4.087a.625.625 0 0 1-.202.067c-.077.013-.154.02-.23.02-1.017 0-1.88-.358-2.59-1.074a3.533 3.533 0 0 1-1.064-2.58c0-1.023.354-1.888 1.064-2.594.71-.707 1.573-1.06 2.59-1.06 1.004 0 1.864.355 2.58 1.064.715.71 1.073 1.572 1.073 2.586 0 .354-.042.682-.128.985-.085.302-.21.59-.374.865l-3.344 5.808h-1.723zm-6.97-5.808c.514 0 .95-.18 1.309-.538a1.78 1.78 0 0 0 .538-1.308c0-.513-.18-.949-.538-1.308a1.78 1.78 0 0 0-1.308-.538c-.513 0-.949.18-1.308.538a1.78 1.78 0 0 0-.538 1.308c0 .513.18.949.538 1.308a1.78 1.78 0 0 0 1.308.538zm8.885 0c.513 0 .95-.18 1.308-.538a1.78 1.78 0 0 0 .539-1.308c0-.513-.18-.949-.539-1.308a1.78 1.78 0 0 0-1.308-.538c-.512 0-.948.18-1.307.538a1.78 1.78 0 0 0-.539 1.308c0 .513.18.949.539 1.308a1.78 1.78 0 0 0 1.307.538z" fill="#16171D" fill-rule="nonzero"/>
</svg>
