<svg width="24" height="24" viewBox="0 0 24 24" xmlns="http://www.w3.org/2000/svg">
    <path d="m5.643 17.653 2.349-4.087a.625.625 0 0 1-.202.067c-.077.013-.154.02-.231.02-1.017 0-1.88-.358-2.59-1.074a3.534 3.534 0 0 1-1.064-2.58c0-1.017.355-1.88 1.064-2.59.71-.71 1.573-1.064 2.59-1.064 1.004 0 1.864.355 2.58 1.064.716.71 1.074 1.573 1.074 2.59 0 .351-.043.678-.128.98-.086.303-.21.592-.374.866l-3.345 5.808H5.644zm8.885 0 2.348-4.087a.625.625 0 0 1-.202.067c-.077.013-.154.02-.23.02-1.017 0-1.88-.358-2.59-1.074a3.534 3.534 0 0 1-1.064-2.58c0-1.023.354-1.888 1.064-2.594.71-.707 1.573-1.06 2.59-1.06 1.003 0 1.863.355 2.58 1.064.715.71 1.073 1.573 1.073 2.59 0 .351-.042.678-.128.98-.085.303-.21.592-.374.866l-3.344 5.808h-1.723z" fill="#000" fill-rule="nonzero"/>
</svg>
