<svg width="24" height="24" viewBox="0 0 24 24" xmlns="http://www.w3.org/2000/svg">
    <path d="M6.84 19.331V4.66h5.383c1.128 0 2.149.351 3.06 1.054.913.703 1.369 1.649 1.369 2.838 0 .828-.2 1.503-.6 2.024-.4.522-.83.9-1.29 1.136.567.196 1.11.583 1.626 1.162.517.578.775 1.357.775 2.337 0 1.415-.522 2.456-1.565 3.121-1.043.666-2.095 1-3.154 1H6.84zm2.38-2.206h3.135c.872 0 1.488-.242 1.848-.726.36-.484.541-.948.541-1.393 0-.444-.18-.908-.54-1.392-.361-.484-.994-.726-1.9-.726H9.22v4.237zm0-6.375h2.873c.673 0 1.206-.192 1.6-.577.394-.385.591-.845.591-1.382 0-.57-.208-1.037-.625-1.4-.416-.361-.927-.542-1.532-.542H9.221v3.9z" fill="#16171D" fill-rule="evenodd"/>
</svg>
