<svg width="24" height="24" viewBox="0 0 24 24" xmlns="http://www.w3.org/2000/svg">
    <path d="M11.94 20.5c-2.165 0-4.052-.713-5.661-2.139C4.669 16.936 3.744 15.15 3.5 13h1.53c.253 1.727 1.03 3.159 2.332 4.295C8.664 18.432 10.19 19 11.94 19c1.95 0 3.605-.68 4.963-2.038C18.26 15.604 18.94 13.95 18.94 12c0-1.95-.679-3.604-2.037-4.963C15.545 5.68 13.89 5 11.94 5a6.685 6.685 0 0 0-3.07.728A7.558 7.558 0 0 0 6.401 7.73h2.615v1.5H3.94V4.154h1.5v2.37a8.488 8.488 0 0 1 2.916-2.23A8.368 8.368 0 0 1 11.94 3.5c1.18 0 2.285.223 3.316.67a8.607 8.607 0 0 1 2.696 1.818 8.607 8.607 0 0 1 1.82 2.697c.445 1.03.668 2.135.668 3.315 0 1.18-.223 2.285-.669 3.315a8.607 8.607 0 0 1-1.82 2.697 8.607 8.607 0 0 1-2.695 1.819 8.256 8.256 0 0 1-3.316.669zm3.002-4.473-3.723-3.723V7h1.5v4.696l3.277 3.277-1.054 1.054z" fill="#16171D" fill-rule="evenodd"/>
</svg>
