<svg width="20" height="20" viewBox="0 0 20 20" xmlns="http://www.w3.org/2000/svg">
    <path d="M4.095 17.5a1.54 1.54 0 0 1-1.132-.463 1.54 1.54 0 0 1-.463-1.132V4.095c0-.446.154-.823.463-1.132A1.54 1.54 0 0 1 4.095 2.5h11.81c.446 0 .823.154 1.132.463.309.31.463.686.463 1.132v11.81c0 .446-.154.823-.463 1.132a1.54 1.54 0 0 1-1.132.463H4.095zm0-1.324h11.81c.08 0 .144-.025.195-.076a.264.264 0 0 0 .076-.195V13.36h-2.901a4.085 4.085 0 0 1-1.433 1.301 3.81 3.81 0 0 1-1.842.463 3.81 3.81 0 0 1-1.842-.463 4.085 4.085 0 0 1-1.433-1.301H3.824v2.545c0 .08.025.144.076.195.05.051.116.076.195.076zM10 13.801a2.57 2.57 0 0 0 1.522-.485c.456-.324.772-.75.949-1.28h3.705V4.095A.264.264 0 0 0 16.1 3.9a.264.264 0 0 0-.195-.076H4.095A.264.264 0 0 0 3.9 3.9a.264.264 0 0 0-.076.195v7.941h3.705c.177.53.493.956.949 1.28A2.57 2.57 0 0 0 10 13.8zm0-2.342L6.776 8.235l.93-.957 1.632 1.633v-3.9h1.324v3.9l1.632-1.633.93.957L10 11.46zm-5.905 4.756h-.271 12.352H4.095z" fill="#4C5267" fill-rule="evenodd"/>
</svg>
