<svg width="24" height="24" viewBox="0 0 24 24" xmlns="http://www.w3.org/2000/svg">
    <path d="M6.555 13.615c-.447 0-.829-.157-1.143-.472A1.557 1.557 0 0 1 4.94 12c0-.447.157-.829.472-1.143a1.557 1.557 0 0 1 1.143-.472c.447 0 .828.157 1.143.472.315.314.472.696.472 1.143 0 .447-.157.828-.472 1.143a1.557 1.557 0 0 1-1.143.472zm0 3.885c-1.526 0-2.824-.535-3.894-1.606-1.07-1.07-1.606-2.368-1.606-3.894 0-1.526.535-2.824 1.606-3.894C3.73 7.036 5.029 6.5 6.555 6.5c1.072 0 2.041.277 2.908.83a5.514 5.514 0 0 1 1.984 2.17h9.002l2.5 2.5-3.846 3.827-1.856-1.394-1.904 1.413-1.951-1.346h-1.945a5.566 5.566 0 0 1-1.984 2.165c-.867.557-1.836.835-2.908.835zm0-1.5c.959 0 1.79-.29 2.491-.87.702-.579 1.16-1.289 1.374-2.13h3.443l1.44.996 1.954-1.429 1.698 1.298L20.82 12l-1-1h-9.4c-.214-.841-.672-1.551-1.374-2.13C8.344 8.29 7.514 8 6.555 8c-1.1 0-2.042.392-2.825 1.175C2.947 9.958 2.555 10.9 2.555 12s.392 2.042 1.175 2.825C4.513 15.608 5.455 16 6.555 16z" fill="#16171D" fill-rule="evenodd"/>
</svg>
