<svg width="20" height="20" viewBox="0 0 20 20" xmlns="http://www.w3.org/2000/svg">
    <path d="M5.833 7.5V5.833H17.5V7.5H5.833zm0 3.333V9.167H17.5v1.666H5.833zm0 3.334V12.5H17.5v1.667H5.833zM3.333 7.5a.806.806 0 0 1-.593-.24.806.806 0 0 1-.24-.593c0-.236.08-.434.24-.594.16-.16.357-.24.593-.24s.434.08.594.24c.16.16.24.358.24.594s-.08.434-.24.593a.806.806 0 0 1-.594.24zm0 3.333a.806.806 0 0 1-.593-.24A.806.806 0 0 1 2.5 10c0-.236.08-.434.24-.594.16-.16.357-.24.593-.24s.434.08.594.24c.16.16.24.358.24.594s-.08.434-.24.594a.806.806 0 0 1-.594.24zm0 3.334a.806.806 0 0 1-.593-.24.806.806 0 0 1-.24-.594c0-.236.08-.434.24-.593.16-.16.357-.24.593-.24s.434.08.594.24c.16.16.24.357.24.593s-.08.434-.24.594a.806.806 0 0 1-.594.24z" fill="#989EB3" fill-rule="evenodd"/>
</svg>
