<svg width="20" height="20" viewBox="0 0 20 20" xmlns="http://www.w3.org/2000/svg">
    <path d="M18.058 3.75c.371 0 .686.129.943.386.257.257.386.572.386.943v9.842c0 .371-.129.686-.386.943a1.283 1.283 0 0 1-.943.386H1.942c-.372 0-.686-.129-.943-.386a1.283 1.283 0 0 1-.386-.943V5.079c0-.371.128-.686.386-.943.257-.257.571-.386.943-.386h16.116zm0 1.103H1.942a.216.216 0 0 0-.156.07.216.216 0 0 0-.07.156v9.842c0 .056.023.108.07.155.047.048.1.071.156.071h16.116a.216.216 0 0 0 .155-.07.216.216 0 0 0 .071-.156V5.079a.216.216 0 0 0-.07-.155.216.216 0 0 0-.156-.071zM9.519 7.242l1.296 3.841 1.296-3.841h1.066l-1.822 5.516h-1.08L8.453 7.242H9.52zm-5.541 0v4.412h2.206v1.103H2.875V7.243h1.103zm3.892 0v5.515H6.767V7.243H7.87zm9.199 0v1.104h-2.206v1.103h1.47v1.102h-1.47v1.103h2.206v1.103H13.76V7.243h3.309z" fill="#989EB3" fill-rule="evenodd"/>
</svg>
