<svg width="24" height="24" viewBox="0 0 24 24" xmlns="http://www.w3.org/2000/svg">
    <path d="M6.308 21.75a1.74 1.74 0 0 1-1.277-.531 1.74 1.74 0 0 1-.531-1.277v-9.384c0-.497.177-.923.531-1.277a1.74 1.74 0 0 1 1.277-.531H7.5v-2c0-1.249.438-2.31 1.313-3.187C9.69 2.688 10.751 2.25 12 2.25c1.249 0 2.31.438 3.187 1.313.875.876 1.313 1.938 1.313 3.187v2h1.192c.497 0 .923.177 1.277.531.354.354.53.78.53 1.277v9.384c0 .497-.176.923-.53 1.277a1.74 1.74 0 0 1-1.277.53H6.308zM12 17c.486 0 .899-.17 1.24-.51.34-.341.51-.754.51-1.24s-.17-.9-.51-1.24c-.341-.34-.754-.51-1.24-.51s-.9.17-1.24.51c-.34.34-.51.754-.51 1.24s.17.899.51 1.24c.34.34.754.51 1.24.51zM9 8.75h6v-2c0-.833-.292-1.542-.875-2.125A2.893 2.893 0 0 0 12 3.75c-.833 0-1.542.292-2.125.875A2.893 2.893 0 0 0 9 6.75v2z" fill="#16171D" fill-rule="evenodd"/>
</svg>
