<svg width="24" height="24" viewBox="0 0 24 24" xmlns="http://www.w3.org/2000/svg">
    <path d="m16.36 19.676-.222-1.327a3.469 3.469 0 0 1-.673-.277 3.09 3.09 0 0 1-.6-.429l-1.268.44-.711-1.21 1.034-.845a2.857 2.857 0 0 1-.107-.766c0-.251.036-.506.107-.765l-1.025-.866.712-1.21 1.258.45c.183-.17.381-.312.595-.423.213-.111.44-.202.678-.272l.223-1.327h1.423l.213 1.327c.239.07.465.164.678.28.214.116.412.265.595.447l1.258-.481.712 1.24-1.025.866c.071.238.107.488.107.75 0 .261-.036.511-.107.75l1.034.846-.711 1.21-1.268-.441a3.09 3.09 0 0 1-.6.429c-.21.114-.434.206-.673.277l-.213 1.327H16.36zm-13.605-.74v-2.224A2.524 2.524 0 0 1 4.22 14.39c.831-.414 1.729-.76 2.693-1.037.964-.278 2.078-.417 3.342-.417h.292c.087 0 .175.01.262.031-.387.97-.55 1.99-.49 3.06.061 1.072.367 2.041.917 2.91H2.755zm14.308-1.77c.524 0 .972-.186 1.345-.559.372-.372.558-.82.558-1.345 0-.524-.186-.973-.558-1.345a1.834 1.834 0 0 0-1.345-.559c-.525 0-.973.187-1.346.559-.372.372-.558.82-.558 1.345s.186.973.558 1.345c.373.373.821.56 1.346.56zm-6.808-5.846c-.965 0-1.79-.342-2.474-1.026A3.372 3.372 0 0 1 6.755 7.82c0-.965.342-1.79 1.026-2.474a3.372 3.372 0 0 1 2.474-1.026c.965 0 1.79.342 2.474 1.026a3.372 3.372 0 0 1 1.026 2.474c0 .965-.342 1.79-1.026 2.474a3.372 3.372 0 0 1-2.474 1.026z" fill="#16171D" fill-rule="evenodd"/>
</svg>
