<svg width="24" height="24" viewBox="0 0 24 24" xmlns="http://www.w3.org/2000/svg">
    <path d="M13.452 5.856H7.91V4.22h7.18l-1.637 1.636zM10.18 9.13H5.455V7.493h6.36L10.18 9.129zm-3.273 3.273H3v-1.637h5.543l-1.636 1.637zm3.948-1.637 4.418 4.419-4.091 4.09c-.327.328-.71.491-1.146.491-.436 0-.818-.163-1.145-.49l-.041-.041-.532.531h-4.09l2.577-2.577-.041-.04c-.328-.328-.491-.71-.491-1.146 0-.437.163-.818.49-1.146l4.092-4.09zM12.02 9.6l4.07-4.07c.328-.328.71-.492 1.146-.492.437 0 .819.164 1.146.491l2.127 2.127c.327.328.491.71.491 1.146 0 .436-.164.818-.49 1.145l-4.071 4.07L12.02 9.6z" fill="#16171D" fill-rule="evenodd"/>
</svg>
