<svg width="24" height="24" viewBox="0 0 24 24" xmlns="http://www.w3.org/2000/svg">
    <path d="M10.676 21.368v-1.867H6.095a1.54 1.54 0 0 1-1.132-.463 1.54 1.54 0 0 1-.463-1.132V6.096c0-.445.154-.822.463-1.131a1.54 1.54 0 0 1 1.132-.463h4.581V2.635H12v18.733h-1.324zm-4.852-4.072h4.852v-5.82l-4.852 5.82zm7.94 2.205v-7.5l4.412 5.295v-11.2a.26.26 0 0 0-.084-.186.26.26 0 0 0-.187-.085h-4.14V4.501h4.14c.446 0 .823.155 1.132.464.309.309.463.686.463 1.132v11.81c0 .445-.154.822-.463 1.131a1.54 1.54 0 0 1-1.132.463h-4.14z" fill="#16171D" fill-rule="evenodd"/>
</svg>
