<svg width="24" height="24" viewBox="0 0 24 24" xmlns="http://www.w3.org/2000/svg">
    <path d="M13.5 17.768c0 .413-.147.766-.44 1.06-.294.294-.648.44-1.06.44-.413 0-.766-.146-1.06-.44a1.444 1.444 0 0 1-.44-1.06c0-.412.147-.765.44-1.059.294-.294.647-.44 1.06-.44.412 0 .766.146 1.06.44.293.294.44.647.44 1.06zm0-5.769c0 .413-.147.766-.44 1.06-.294.293-.648.44-1.06.44-.413 0-.766-.147-1.06-.44a1.444 1.444 0 0 1-.44-1.06c0-.412.147-.765.44-1.06.294-.293.647-.44 1.06-.44.412 0 .766.147 1.06.44.293.295.44.648.44 1.06zm0-5.769c0 .413-.147.766-.44 1.06-.294.293-.648.44-1.06.44-.413 0-.766-.147-1.06-.44a1.444 1.444 0 0 1-.44-1.06c0-.412.147-.766.44-1.06.294-.293.647-.44 1.06-.44.412 0 .766.147 1.06.44.293.294.44.648.44 1.06z" fill="#16171D" fill-rule="evenodd"/>
</svg>
