<svg width="24" height="24" viewBox="0 0 24 24" xmlns="http://www.w3.org/2000/svg">
    <path d="M6.23 13.5c-.413 0-.766-.147-1.06-.44A1.444 1.444 0 0 1 4.73 12c0-.413.147-.766.44-1.06.294-.293.647-.44 1.06-.44.412 0 .766.147 1.06.44.293.294.44.647.44 1.06 0 .412-.147.766-.44 1.06-.294.293-.648.44-1.06.44zm5.77 0c-.413 0-.766-.147-1.06-.44A1.444 1.444 0 0 1 10.5 12c0-.413.146-.766.44-1.06.294-.293.647-.44 1.06-.44.412 0 .765.147 1.059.44.293.294.44.647.44 1.06 0 .412-.147.766-.44 1.06-.294.293-.647.44-1.06.44zm5.768 0c-.412 0-.765-.147-1.059-.44a1.444 1.444 0 0 1-.44-1.06c0-.413.146-.766.44-1.06.294-.293.647-.44 1.06-.44.412 0 .765.147 1.059.44.293.294.44.647.44 1.06 0 .412-.147.766-.44 1.06-.294.293-.647.44-1.06.44z" fill="#16171D" fill-rule="nonzero"/>
</svg>
