<svg width="24" height="24" viewBox="0 0 24 24" xmlns="http://www.w3.org/2000/svg">
    <path d="M4.115 20.393c-.444 0-.824-.158-1.14-.474a1.555 1.555 0 0 1-.475-1.14V4.104L3.675 5.28l1.65-1.675L7 5.28l1.675-1.675 1.65 1.675L12 3.605l1.675 1.675 1.65-1.675L17 5.28l1.675-1.675 1.65 1.675L21.5 4.105v14.673c0 .444-.158.825-.475 1.141a1.555 1.555 0 0 1-1.14.474H4.115zm0-1H11.5v-7h-8v6.385c0 .18.058.327.173.442a.599.599 0 0 0 .442.173zm8.385 0h7.385c.18 0 .327-.057.442-.173a.599.599 0 0 0 .173-.442v-2.385h-8v3zm0-4h8v-3h-8v3zm-9-4h17V7.201h-17v4.192z" fill="#16171D" fill-rule="evenodd"/>
</svg>
