<svg width="20" height="20" viewBox="0 0 20 20" xmlns="http://www.w3.org/2000/svg">
    <path d="M6.258 16.418V7.751c0-.415.15-.768.448-1.058.298-.29.656-.435 1.071-.435h8.641c.416 0 .77.147 1.065.441.294.295.441.65.441 1.065v6.234l-3.926 3.926H7.764c-.415 0-.77-.147-1.065-.441a1.451 1.451 0 0 1-.441-1.065zM2.112 5.36c-.078-.415.003-.79.243-1.123.24-.333.567-.539.983-.617l8.529-1.508c.415-.078.79.003 1.123.243.334.24.54.567.617.983l.192 1.093H7.764a3.21 3.21 0 0 0-2.354.98 3.21 3.21 0 0 0-.979 2.353v7.221a1.616 1.616 0 0 1-.529-.448 1.445 1.445 0 0 1-.282-.648L2.112 5.36zm14.563 7.981H13.34v3.334l3.334-3.334z" fill="#4C5267" fill-rule="evenodd"/>
</svg>
