<svg width="24" height="24" viewBox="0 0 24 24" xmlns="http://www.w3.org/2000/svg">
    <path d="M5.308 20.5c-.505 0-.933-.175-1.283-.525a1.745 1.745 0 0 1-.525-1.283V5.308c0-.505.175-.933.525-1.283.35-.35.778-.525 1.283-.525h6.307V5H5.308a.294.294 0 0 0-.212.096.294.294 0 0 0-.096.212v13.384c0 .077.032.148.096.212a.294.294 0 0 0 .212.096h13.384a.294.294 0 0 0 .212-.096.294.294 0 0 0 .096-.212v-6.307h1.5v6.307c0 .505-.175.933-.525 1.283-.35.35-.778.525-1.283.525H5.308zm4.411-5.165L8.665 14.28 17.946 5H14V3.5h6.5V10H19V6.054l-9.28 9.28z" fill="#16171D" fill-rule="evenodd"/>
</svg>
