<svg width="24" height="24" viewBox="0 0 24 24" xmlns="http://www.w3.org/2000/svg">
    <path d="M2.251 17.768v-1.5h19.5v1.5h-19.5zm.842-6.011-1.03-.596.907-1.596H1.155V8.372H2.97l-.907-1.546 1.03-.596.908 1.546.908-1.546 1.03.596-.907 1.546h1.815v1.193H5.032l.908 1.596-1.031.596L4 10.16l-.908 1.596zm8 0-1.03-.596.907-1.596H9.155V8.372h1.815l-.907-1.546 1.03-.596.908 1.546.908-1.546 1.03.596-.907 1.546h1.815v1.193h-1.815l.908 1.596-1.031.596L12 10.16l-.908 1.596zm8 0-1.03-.596.907-1.596h-1.815V8.372h1.815l-.907-1.546 1.03-.596.908 1.546.908-1.546 1.03.596-.907 1.546h1.815v1.193h-1.815l.908 1.596-1.031.596L20 10.16l-.908 1.596z" fill="#16171D" fill-rule="nonzero"/>
</svg>
