<svg width="18" height="18" viewBox="0 0 18 18" xmlns="http://www.w3.org/2000/svg">
    <path d="m12.998 9.489-.79-.79 1.563-1.576-1.564-1.556.79-.802 1.575 1.575 1.557-1.575.802.802-1.568 1.556 1.568 1.575-.802.79-1.557-1.556-1.574 1.557zm-6.3-.722c-.722 0-1.34-.256-1.854-.77a2.528 2.528 0 0 1-.772-1.854c0-.722.258-1.34.772-1.854a2.527 2.527 0 0 1 1.853-.771c.722 0 1.34.257 1.854.77.514.515.771 1.133.771 1.854 0 .722-.257 1.34-.77 1.854a2.528 2.528 0 0 1-1.854.771zM1.071 14.48v-1.667c0-.368.1-.708.3-1.02.2-.314.466-.554.8-.723.74-.363 1.489-.636 2.243-.817a9.712 9.712 0 0 1 4.565 0c.754.181 1.502.454 2.243.817.334.169.6.41.8.722.2.313.3.653.3 1.02v1.668H1.072zm1.125-1.125h9v-.542a.735.735 0 0 0-.131-.422 1 1 0 0 0-.359-.317 9.646 9.646 0 0 0-1.976-.723 8.547 8.547 0 0 0-4.067 0 9.646 9.646 0 0 0-1.976.723 1 1 0 0 0-.359.317.735.735 0 0 0-.132.422v.542zm4.5-5.711c.413 0 .766-.147 1.06-.441.294-.294.44-.647.44-1.06 0-.412-.146-.765-.44-1.059a1.444 1.444 0 0 0-1.06-.44c-.412 0-.765.146-1.059.44-.294.294-.44.647-.44 1.06 0 .412.146.765.44 1.059.294.294.647.44 1.06.44z" fill="#4C5267" fill-rule="evenodd"/>
</svg>
