<svg width="24" height="24" viewBox="0 0 24 24" xmlns="http://www.w3.org/2000/svg">
    <path d="M12 11.68c-.963 0-1.786-.343-2.472-1.028C8.843 9.966 8.5 9.142 8.5 8.18c0-.963.343-1.786 1.028-2.472.686-.685 1.51-1.028 2.472-1.028s1.786.343 2.472 1.028c.685.686 1.028 1.51 1.028 2.472s-.343 1.786-1.028 2.472c-.686.685-1.51 1.028-2.472 1.028zm-7.5 7.615v-2.223c0-.49.133-.943.399-1.36a2.664 2.664 0 0 1 1.066-.963 14.506 14.506 0 0 1 2.992-1.09 12.95 12.95 0 0 1 6.086 0c1.006.242 2.003.606 2.992 1.09.444.225.8.545 1.066.963.266.417.399.87.399 1.36v2.223h-15z" fill="#16171D" fill-rule="evenodd"/>
</svg>
