<svg width="24" height="25" viewBox="0 0 24 25" xmlns="http://www.w3.org/2000/svg">
    <path d="M4.06 22.222a1.983 1.983 0 0 1-1.452-.607A1.983 1.983 0 0 1 2 20.16V10.89h11.333v11.333H4.061zm11.345 0v-2.06h2.276v2.06h-2.276zm4.549 0v-2.06H22c0 .559-.204 1.042-.611 1.45-.407.407-.886.61-1.435.61zM3.403 19.42h8.649l-2.818-3.74-2.077 2.663-1.505-1.936-2.25 3.013zm16.55-1.532v-2.275H22v2.275h-2.046zm0-4.548v-2.276H22v2.276h-2.046zM2 8.817V6.542h2.06v2.275H2zm17.954 0V6.542H22v2.275h-2.046zM2 4.269c0-.55.203-1.029.608-1.436.405-.407.89-.61 1.453-.61v2.046H2zm4.334 0V2.222h2.275V4.27H6.334zm4.549 0V2.222h2.275V4.27h-2.275zm4.522 0V2.222h2.276V4.27h-2.276zm4.549 0V2.222c.55 0 1.028.204 1.435.611.407.407.611.886.611 1.436h-2.046z" fill="#16171D" fill-rule="evenodd"/>
</svg>
