<svg width="24" height="24" viewBox="0 0 24 24" xmlns="http://www.w3.org/2000/svg">
    <path d="M5.308 20.5a1.74 1.74 0 0 1-1.277-.531 1.74 1.74 0 0 1-.531-1.277V5.308c0-.497.177-.923.531-1.277A1.74 1.74 0 0 1 5.308 3.5h13.384c.497 0 .923.177 1.277.531.354.354.53.78.53 1.277v13.384c0 .497-.176.923-.53 1.277a1.74 1.74 0 0 1-1.277.53H5.308zm0-1.5h13.384a.3.3 0 0 0 .221-.087.3.3 0 0 0 .087-.22V7H5v11.692a.3.3 0 0 0 .087.221.3.3 0 0 0 .22.087zM12 16.5c-1.226 0-2.325-.324-3.297-.973A5.881 5.881 0 0 1 6.548 13a5.881 5.881 0 0 1 2.155-2.527C9.675 9.824 10.774 9.5 12 9.5s2.325.324 3.297.973A5.881 5.881 0 0 1 17.452 13a5.881 5.881 0 0 1-2.155 2.527c-.972.649-2.071.973-3.297.973zm-.002-2.192c-.364 0-.673-.128-.926-.382a1.267 1.267 0 0 1-.38-.928c0-.364.128-.673.382-.926.255-.253.564-.38.928-.38.364 0 .673.128.926.382.253.255.38.564.38.928 0 .364-.128.673-.382.926-.255.253-.564.38-.928.38zm.002.884c.61 0 1.128-.213 1.554-.638.425-.426.638-.944.638-1.554 0-.61-.213-1.128-.638-1.554A2.115 2.115 0 0 0 12 10.808c-.61 0-1.128.213-1.554.638A2.115 2.115 0 0 0 9.808 13c0 .61.213 1.128.638 1.554.426.425.944.638 1.554.638z" fill="#16171D" fill-rule="evenodd"/>
</svg>
