<svg width="24" height="24" viewBox="0 0 24 24" xmlns="http://www.w3.org/2000/svg">
    <path d="M15.961 8.15v-3h-8v3h-1.5v-4.5h11v4.5h-1.5zM4.25 9.687h15.423H4.25zm13.52 2.463c.282 0 .52-.096.712-.288a.968.968 0 0 0 .287-.712.968.968 0 0 0-.287-.713.968.968 0 0 0-.713-.287.968.968 0 0 0-.712.287.968.968 0 0 0-.288.713c0 .283.096.52.288.712.191.192.429.288.712.288zm-1.809 6.692v-4.269h-8v4.27h8zm1.5 1.5h-11v-4H2.75V10.65c0-.708.242-1.302.726-1.781.484-.48 1.075-.719 1.774-.719h13.423c.708 0 1.302.24 1.781.719.48.479.719 1.073.719 1.78v5.693H17.46v4zm2.212-5.5V10.65a.968.968 0 0 0-.287-.713.968.968 0 0 0-.713-.287H5.25a.968.968 0 0 0-.713.287.968.968 0 0 0-.287.713v4.192h2.212v-1.769h11v1.77h2.211z" fill="#16171D" fill-rule="nonzero"/>
</svg>
