<svg width="24" height="24" viewBox="0 0 24 24" xmlns="http://www.w3.org/2000/svg">
    <path d="M17.501 7.27h-11V3.655h11V7.27zm.308 4.885c.283 0 .521-.096.713-.288a.968.968 0 0 0 .287-.712.968.968 0 0 0-.287-.713.968.968 0 0 0-.713-.287.968.968 0 0 0-.712.287.968.968 0 0 0-.288.713c0 .283.096.52.288.712.191.192.429.288.712.288zm-1.808 6.692v-4.269h-8v4.27h8zm1.5 1.5h-11v-4H2.79v-5.692c0-.708.242-1.302.726-1.781.484-.48 1.075-.719 1.774-.719h13.423c.708 0 1.302.24 1.781.719.48.479.719 1.073.719 1.78v5.693H17.5v4z" fill="#16171D" fill-rule="nonzero"/>
</svg>
