<svg width="20" height="20" viewBox="0 0 20 20" xmlns="http://www.w3.org/2000/svg">
    <path d="M11.458 12.516a.732.732 0 0 0 .535-.228.732.732 0 0 0 .228-.535.732.732 0 0 0-.228-.534.732.732 0 0 0-.535-.229.732.732 0 0 0-.534.229.732.732 0 0 0-.229.534c0 .204.077.382.229.535.152.152.33.228.534.228zm-.497-2.506h.994c.01-.377.06-.656.145-.838.086-.182.29-.428.611-.74.385-.368.647-.68.786-.934s.208-.55.208-.886c0-.593-.21-1.082-.628-1.467-.419-.385-.958-.578-1.619-.578-.516 0-.97.143-1.361.427a2.416 2.416 0 0 0-.853 1.147l.9.378c.141-.336.322-.589.543-.757.22-.168.478-.252.771-.252.366 0 .666.105.901.317.235.211.352.49.352.837 0 .21-.06.407-.178.592-.12.184-.326.41-.62.68-.404.355-.664.653-.78.896-.114.242-.172.635-.172 1.178zm-4.246 4.782c-.421 0-.777-.146-1.07-.438a1.454 1.454 0 0 1-.437-1.069V3.798c0-.42.146-.777.438-1.069a1.454 1.454 0 0 1 1.069-.437h9.487c.42 0 .777.146 1.069.437.291.292.437.648.437 1.07v9.486c0 .421-.145.777-.437 1.07a1.454 1.454 0 0 1-1.07.437H6.716zm0-1.25h9.487a.245.245 0 0 0 .176-.08.245.245 0 0 0 .08-.177V3.798a.245.245 0 0 0-.08-.176.245.245 0 0 0-.176-.08H6.715a.245.245 0 0 0-.176.08.245.245 0 0 0-.08.176v9.487c0 .064.026.123.08.176.053.054.112.08.176.08zm-2.917 4.166c-.42 0-.777-.145-1.069-.437a1.454 1.454 0 0 1-.437-1.07V5.466h1.25v10.737c0 .064.026.123.08.176.053.054.112.08.176.08h10.737v1.25H3.798zm2.7-14.166v10-10z" fill="#989EB3" fill-rule="evenodd"/>
</svg>
