<svg width="20" height="20" viewBox="0 0 20 20" xmlns="http://www.w3.org/2000/svg">
    <path d="M7.612 14.343H12.1c.188 0 .359-.044.512-.133a.755.755 0 0 0 .331-.39l1.59-3.698c.033-.086.058-.169.075-.249.016-.08.024-.157.024-.232v-.522a.593.593 0 0 0-.171-.438.593.593 0 0 0-.438-.171H9.95l.485-2.625a.653.653 0 0 0-.022-.364.817.817 0 0 0-.193-.301l-.38-.38-3.224 3.493a.868.868 0 0 0-.19.293.997.997 0 0 0-.063.364v4.103c0 .344.123.638.367.883.245.244.54.367.883.367zm2.39 3.574a7.712 7.712 0 0 1-3.088-.624A7.997 7.997 0 0 1 4.4 15.601a7.993 7.993 0 0 1-1.693-2.513 7.704 7.704 0 0 1-.624-3.087c0-1.095.208-2.124.624-3.087A7.997 7.997 0 0 1 4.399 4.4a7.993 7.993 0 0 1 2.513-1.693 7.704 7.704 0 0 1 3.087-.624c1.095 0 2.124.208 3.087.624.964.415 1.802.98 2.514 1.692a7.993 7.993 0 0 1 1.693 2.513c.416.963.624 1.992.624 3.087a7.712 7.712 0 0 1-.624 3.087 7.997 7.997 0 0 1-1.692 2.514 7.993 7.993 0 0 1-2.513 1.693 7.704 7.704 0 0 1-3.087.624zM10 16.667c1.861 0 3.437-.646 4.73-1.938 1.29-1.292 1.937-2.868 1.937-4.729 0-1.861-.646-3.438-1.938-4.73C13.437 3.98 11.861 3.334 10 3.334c-1.861 0-3.438.646-4.73 1.938C3.98 6.562 3.334 8.139 3.334 10c0 1.861.646 3.437 1.938 4.73 1.291 1.29 2.868 1.937 4.729 1.937z" fill="#989EB3" fill-rule="evenodd"/>
</svg>
