<svg width="20" height="20" viewBox="0 0 20 20" xmlns="http://www.w3.org/2000/svg">
    <path d="M4.088 17.5c-.44 0-.816-.154-1.125-.463a1.532 1.532 0 0 1-.463-1.125V4.088c0-.44.154-.816.463-1.125A1.532 1.532 0 0 1 4.088 2.5h11.824c.44 0 .816.154 1.125.463.309.31.463.684.463 1.125v11.824c0 .44-.154.816-.463 1.125a1.532 1.532 0 0 1-1.125.463h-3.155v-1.324h3.155c.059 0 .117-.029.176-.088.06-.059.088-.117.088-.176V5.588H3.824v10.324c0 .059.029.117.088.176.059.06.117.088.176.088h3.155V17.5H4.088zm5.25 0v-5.493L7.706 13.64l-.927-.949L10 9.45l3.22 3.242-.926.949-1.632-1.633V17.5H9.338z" fill="#4C5267" fill-rule="evenodd"/>
</svg>
