<?xml version="1.0" encoding="UTF-8"?>
<svg width="24px" height="24px" viewBox="0 0 24 24" version="1.1" xmlns="http://www.w3.org/2000/svg" xmlns:xlink="http://www.w3.org/1999/xlink">
    <title>right-click</title>
    <g id="right-click" stroke="none" stroke-width="1" fill="none" fill-rule="evenodd">
        <g id="icon-/-right_click" transform="translate(2.93, 2.93)" fill="#16171D">
            <path d="M12.0869813,13.1559815 L12.6629654,11.2620929 C13.733663,11.0025056 14.6153611,10.4433946 15.3080596,9.58475989 C16.0007582,8.72612515 16.3471075,7.72771266 16.3471075,6.58952243 C16.3471075,5.27161794 15.8778537,4.14341183 14.9393459,3.20490409 C14.0008382,2.26639635 12.8726321,1.79714248 11.5547276,1.79714248 C10.4165373,1.79714248 9.42002183,2.14159479 8.56518106,2.83049941 C7.71034029,3.51940402 7.15312628,4.40299908 6.89353903,5.48128456 L4.98826848,6.04588683 C5.13423638,4.33620528 5.83082878,2.90118701 7.07804566,1.74083202 C8.32526254,0.580277338 9.81748984,8.8817842e-16 11.5547276,8.8817842e-16 C13.3826212,8.8817842e-16 14.9378483,0.641280342 16.220409,1.92384102 C17.5029697,3.20640171 18.14425,4.76162884 18.14425,6.58952243 C18.14425,8.32676016 17.5620757,9.81898746 16.397727,11.0662043 C15.2333784,12.3134212 13.7964631,13.0100136 12.0869813,13.1559815 L12.0869813,13.1559815 Z M1.80193486,18.14425 L-8.8817842e-16,16.3423151 L5.44444314,10.9095534 L1.50930016,9.60782322 L11.5547276,6.58952243 L8.53642678,16.6349498 L7.23469658,12.6998069 L1.80193486,18.14425 Z" id="Shape"></path>
        </g>
    </g>
</svg>