<svg width="24" height="24" viewBox="0 0 24 24" xmlns="http://www.w3.org/2000/svg">
    <path d="M13.914 21.064c-.288.287-.644.43-1.07.43-.425 0-.781-.143-1.069-.43l-8.8-8.8a1.622 1.622 0 0 1-.341-.5 1.486 1.486 0 0 1-.124-.604V4.01c0-.409.148-.761.443-1.057A1.443 1.443 0 0 1 4.01 2.51h7.15a1.571 1.571 0 0 1 1.085.446l8.8 8.816c.293.293.442.652.445 1.075.003.424-.139.78-.426 1.067l-7.15 7.15zM6.509 7.76c.347 0 .642-.121.886-.364.243-.243.365-.538.365-.885s-.121-.642-.364-.886a1.202 1.202 0 0 0-.885-.365c-.347 0-.642.121-.886.364a1.202 1.202 0 0 0-.365.885c0 .347.121.642.364.886.243.243.538.365.885.365z" fill="#16171D" fill-rule="evenodd"/>
</svg>
