<svg width="24" height="24" viewBox="0 0 24 24" xmlns="http://www.w3.org/2000/svg">
    <path d="m9.693 21.5-.38-3.046a5.305 5.305 0 0 1-1.579-.896L4.913 18.75l-2.308-4 2.44-1.844a5.01 5.01 0 0 1-.049-.448 7.002 7.002 0 0 1 0-.882c.01-.147.026-.307.05-.482L2.604 9.25l2.308-3.98 2.811 1.182a6.4 6.4 0 0 1 .772-.524c.274-.158.543-.286.807-.382l.39-3.046h4.616l.38 3.056c.3.109.572.236.815.381.243.146.488.317.736.515l2.85-1.183 2.307 3.981-2.479 1.873c.036.162.056.313.059.453.003.14.005.282.005.424a9.1 9.1 0 0 1-.01.414 2.89 2.89 0 0 1-.069.482l2.46 1.854-2.308 4-2.815-1.202c-.248.197-.5.372-.758.524a4.576 4.576 0 0 1-.792.372l-.381 3.056H9.693zm2.32-6.5c.832 0 1.54-.292 2.124-.876A2.892 2.892 0 0 0 15.013 12c0-.832-.292-1.54-.876-2.124A2.892 2.892 0 0 0 12.013 9c-.843 0-1.553.292-2.132.876A2.905 2.905 0 0 0 9.013 12c0 .832.29 1.54.868 2.124.579.584 1.29.876 2.132.876z" fill="#16171D" fill-rule="evenodd"/>
</svg>
