<svg width="24" height="24" viewBox="0 0 24 24" xmlns="http://www.w3.org/2000/svg">
    <path d="m9.688 21.5-.38-3.046a5.305 5.305 0 0 1-1.579-.896L4.908 18.75l-2.308-4 2.44-1.844a5.01 5.01 0 0 1-.049-.448 7.002 7.002 0 0 1 0-.882c.01-.147.026-.307.05-.482L2.6 9.25l2.308-3.98 2.811 1.182a6.4 6.4 0 0 1 .772-.524c.274-.158.543-.286.807-.382l.39-3.046h4.616l.38 3.056c.3.109.572.236.815.381.243.146.488.317.736.515l2.85-1.183 2.307 3.981-2.479 1.873c.036.162.056.313.059.453.003.14.005.282.005.424a9.1 9.1 0 0 1-.01.414 2.89 2.89 0 0 1-.069.482l2.46 1.854-2.308 4-2.815-1.202c-.248.197-.5.372-.758.524a4.576 4.576 0 0 1-.792.372l-.381 3.056H9.688zm2.32-6.5c.832 0 1.54-.292 2.124-.876A2.892 2.892 0 0 0 15.008 12c0-.832-.292-1.54-.876-2.124A2.892 2.892 0 0 0 12.008 9c-.843 0-1.553.292-2.132.876A2.905 2.905 0 0 0 9.008 12c0 .832.29 1.54.868 2.124.579.584 1.29.876 2.132.876zm0-1.5c-.417 0-.771-.146-1.063-.438A1.447 1.447 0 0 1 10.508 12c0-.417.145-.77.437-1.063a1.447 1.447 0 0 1 1.063-.437c.416 0 .77.146 1.062.437.292.292.438.646.438 1.063 0 .417-.146.77-.438 1.062a1.447 1.447 0 0 1-1.062.438zM10.996 20h1.965l.36-2.679c.51-.133.977-.323 1.4-.568.422-.246.829-.561 1.221-.947l2.485 1.044.984-1.7-2.169-1.635c.084-.259.14-.512.17-.761a6.265 6.265 0 0 0 0-1.508 3.908 3.908 0 0 0-.17-.742l2.189-1.654-.985-1.7-2.513 1.06a5.321 5.321 0 0 0-1.203-.948 5.168 5.168 0 0 0-1.419-.583L12.996 4h-1.985l-.33 2.67c-.51.12-.982.304-1.414.553-.432.249-.844.57-1.236.962L5.546 7.15l-.985 1.7 2.16 1.61a3.644 3.644 0 0 0-.175.74 6.283 6.283 0 0 0 0 1.575c.033.25.089.497.165.74l-2.15 1.635.985 1.7 2.475-1.05c.38.39.785.709 1.217.958.432.248.91.44 1.433.573L10.996 20z" fill="#16171D" fill-rule="evenodd"/>
</svg>
