<svg width="24" height="24" viewBox="0 0 24 24" xmlns="http://www.w3.org/2000/svg">
    <path d="M15.5 3.5a2 2 0 0 1 2 2v13a2 2 0 0 1-2 2h-7a2 2 0 0 1-2-2v-13a2 2 0 0 1 2-2h7zm.5 5.209-8 7.999V18.5a.5.5 0 0 0 .5.5h.037L16 11.537V8.709zm0 4.243L9.951 19h2.829L16 15.78v-2.828zm0 4.242L14.194 19H15.5a.5.5 0 0 0 .5-.5v-1.306zM15.5 5h-.034L8 12.467v2.827l8-8V5.5a.5.5 0 0 0-.5-.5zm-1.448 0h-2.828L8 8.224v2.828L14.052 5zM9.809 5H8.5a.5.5 0 0 0-.5.5v1.31L9.809 5z" fill="#16171D" fill-rule="evenodd"/>
</svg>
