<svg width="24" height="24" viewBox="0 0 24 24" xmlns="http://www.w3.org/2000/svg">
    <path d="M19.086 8c.535 0 .987.175 1.358.525.37.35.556.778.556 1.283v5.384c0 .505-.185.933-.556 1.283-.37.35-.823.525-1.358.525H4.914c-.535 0-.988-.175-1.358-.525A1.697 1.697 0 0 1 3 15.192V9.808c0-.505.185-.933.556-1.283.37-.35.823-.525 1.358-.525h14.172zm.325 2.069-5.43 5.43h2.829l2.601-2.602v-2.828zm-5.086-.57h-2.829l-6 6h2.829l6-6zm5.086 4.813-1.187 1.187.862.001a.32.32 0 0 0 .224-.096.287.287 0 0 0 .102-.212l-.001-.88zm-.844-4.813h-2.828l-6 6h2.828l6-6zm-8.486 0H7.254l-2.666 2.666v2.828l5.493-5.494zm-4.242 0-.925.001a.32.32 0 0 0-.224.096.287.287 0 0 0-.102.212v.942l1.251-1.251z" fill="#16171D" fill-rule="evenodd"/>
</svg>
