<svg width="24" height="24" viewBox="0 0 24 24" xmlns="http://www.w3.org/2000/svg">
    <path d="M18.299 5c.475 0 .877.163 1.207.49.33.327.494.726.494 1.197v10.626c0 .471-.165.87-.494 1.197a1.65 1.65 0 0 1-1.207.49H5.7a1.65 1.65 0 0 1-1.207-.49A1.622 1.622 0 0 1 4 17.313V6.687c0-.471.165-.87.494-1.197A1.65 1.65 0 0 1 5.701 5H18.3zm.01 1.4L7.11 17.6h2.829l8.649-8.65V6.687a.274.274 0 0 0-.09-.197.28.28 0 0 0-.188-.09zm.279 3.964-7.235 7.235h2.828l4.407-4.407v-2.828zm0 4.242-2.993 2.993 2.704.001c.072 0 .138-.03.199-.09.06-.06.09-.125.09-.197v-2.707zm-1.693-8.207h-2.828l-8.656 8.657v2.257c0 .072.03.137.091.197.06.059.124.089.195.09L16.895 6.399zm-4.242 0H9.825l-4.414 4.413v2.829l7.242-7.242zm-4.243 0L5.701 6.4a.278.278 0 0 0-.199.09.274.274 0 0 0-.09.197L5.41 9.398 8.41 6.399z" fill="#16171D" fill-rule="evenodd"/>
</svg>
