<svg width="24" height="24" viewBox="0 0 24 24" xmlns="http://www.w3.org/2000/svg">
    <path d="M17.727 8.32V6.682h-1.636V5.046h1.636V3.41h1.637v1.636H21v1.637h-1.636v1.636h-1.637zm-3.682 3.272c.341 0 .631-.12.87-.358.238-.239.358-.529.358-.87 0-.34-.12-.63-.358-.869a1.184 1.184 0 0 0-.87-.358c-.34 0-.63.12-.869.358a1.184 1.184 0 0 0-.358.87c0 .34.12.63.358.869.239.239.529.358.87.358zm-5.727 0c.341 0 .63-.12.87-.358.238-.239.357-.529.357-.87 0-.34-.119-.63-.357-.869a1.184 1.184 0 0 0-.87-.358c-.34 0-.63.12-.87.358a1.184 1.184 0 0 0-.357.87c0 .34.12.63.358.869.239.239.528.358.87.358zm2.864 5.318c.927 0 1.77-.262 2.526-.788a4.487 4.487 0 0 0 1.647-2.076H7.009c.341.86.89 1.552 1.647 2.076a4.332 4.332 0 0 0 2.526.788zm0 3.682a7.967 7.967 0 0 1-3.191-.644 8.262 8.262 0 0 1-2.598-1.75 8.262 8.262 0 0 1-1.749-2.597A7.967 7.967 0 0 1 3 12.41c0-1.132.215-2.195.644-3.19a8.262 8.262 0 0 1 1.75-2.599A8.262 8.262 0 0 1 7.99 4.872a7.967 7.967 0 0 1 3.19-.644 8.147 8.147 0 0 1 3.274.675V8.32h1.636v1.636h2.904a8.208 8.208 0 0 1 .369 2.455 7.967 7.967 0 0 1-.645 3.19A8.262 8.262 0 0 1 16.97 18.2a8.262 8.262 0 0 1-2.597 1.748c-.996.43-2.06.645-3.191.645z" fill="#16171D" fill-rule="evenodd"/>
</svg>
