<svg width="24" height="24" viewBox="0 0 24 24" xmlns="http://www.w3.org/2000/svg">
    <path d="M11.185 20.592c-1.129 0-2.19-.215-3.184-.645A8.297 8.297 0 0 1 5.4 18.192a8.297 8.297 0 0 1-1.756-2.602A7.935 7.935 0 0 1 3 12.406c0-1.13.215-2.191.646-3.187a8.261 8.261 0 0 1 1.752-2.598 8.281 8.281 0 0 1 2.603-1.749 7.956 7.956 0 0 1 3.18-.644c.613 0 1.203.065 1.772.194.57.13 1.115.313 1.638.55v1.527a6.737 6.737 0 0 0-3.406-.907c-1.89 0-3.5.662-4.828 1.987-1.329 1.325-1.993 2.933-1.993 4.824s.664 3.502 1.994 4.831c1.33 1.33 2.94 1.994 4.83 1.994 1.891 0 3.5-.664 4.825-1.992C17.338 15.908 18 14.299 18 12.41a6.671 6.671 0 0 0-.518-2.59h1.459c.14.416.247.838.317 1.262.07.425.106.867.106 1.328a7.956 7.956 0 0 1-.645 3.18 8.28 8.28 0 0 1-1.749 2.604 8.261 8.261 0 0 1-2.597 1.752 7.944 7.944 0 0 1-3.188.646zm6.679-12.273V6.546H16.09V5.183h1.773V3.41h1.363v1.773H21v1.363h-1.773V8.32h-1.363zm-3.737 3.096c.318 0 .589-.112.812-.335.222-.222.334-.493.334-.81 0-.32-.112-.59-.334-.812a1.105 1.105 0 0 0-.812-.334c-.318 0-.588.111-.811.334a1.105 1.105 0 0 0-.334.811c0 .318.111.589.334.811.223.223.493.335.811.335zm-5.89 0c.318 0 .588-.112.81-.335.223-.222.335-.493.335-.81 0-.32-.112-.59-.334-.812a1.105 1.105 0 0 0-.812-.334c-.318 0-.588.111-.811.334a1.105 1.105 0 0 0-.334.811c0 .318.111.589.334.811.223.223.493.335.811.335zm2.945 5.481c.909 0 1.742-.249 2.499-.746a4.27 4.27 0 0 0 1.646-2.008h-8.29c.35.84.9 1.51 1.653 2.008a4.421 4.421 0 0 0 2.492.746z" fill="#16171D" fill-rule="evenodd"/>
</svg>
