<svg width="24" height="24" viewBox="0 0 24 24" xmlns="http://www.w3.org/2000/svg">
    <path d="M12.002 21.5a9.254 9.254 0 0 1-3.705-.748 9.596 9.596 0 0 1-3.018-2.03 9.592 9.592 0 0 1-2.03-3.016 9.245 9.245 0 0 1-.749-3.704c0-1.314.25-2.55.748-3.705a9.596 9.596 0 0 1 2.03-3.018 9.593 9.593 0 0 1 3.017-2.03A9.248 9.248 0 0 1 12 2.5c1.053 0 2.05.158 2.99.475.94.317 1.802.758 2.587 1.325l-1.085 1.11a8.185 8.185 0 0 0-2.1-1.039A7.622 7.622 0 0 0 12 4c-2.217 0-4.104.78-5.663 2.337C4.78 7.896 4 9.783 4 12s.78 4.104 2.337 5.662C7.896 19.221 9.783 20 12 20s4.104-.78 5.662-2.338C19.221 16.104 20 14.217 20 12a7.82 7.82 0 0 0-.07-1.042 7.126 7.126 0 0 0-.207-1.002l1.212-1.221c.183.514.323 1.043.42 1.586A9.56 9.56 0 0 1 21.5 12c0 1.314-.25 2.55-.748 3.705a9.594 9.594 0 0 1-2.03 3.016 9.592 9.592 0 0 1-3.016 2.03 9.247 9.247 0 0 1-3.704.749zm-1.421-5.246L6.677 12.35l1.054-1.054 2.85 2.85 9.865-9.88L21.5 5.318 10.58 16.254z" fill="#16171D" fill-rule="evenodd"/>
</svg>
