<svg width="24" height="24" viewBox="0 0 24 24" xmlns="http://www.w3.org/2000/svg">
    <path d="M16.19 19.618H7.81V9.713l5.333-5.333.952.952a1 1 0 0 1 .22.362c.056.153.085.299.085.438V6.4l-.838 3.314h4.914c.407 0 .762.153 1.067.457.305.305.457.66.457 1.067v1.524c0 .089-.013.184-.038.286a8.9 8.9 0 0 1-.076.285L17.6 18.704c-.114.254-.305.47-.571.647a1.488 1.488 0 0 1-.839.267zm-6.857-1.524h6.857l2.286-5.333v-1.524H11.62l1.029-4.19-3.315 3.314v7.733zm.04-7.733v7.733-7.733zM7.81 9.713v1.524H5.524v6.857H7.81v1.524H4V9.713h3.81z" fill="#16171D" fill-rule="evenodd"/>
</svg>
