<svg width="21" height="20" viewBox="0 0 21 20" xmlns="http://www.w3.org/2000/svg">
    <path d="M15.175 5.507a3.593 3.593 0 0 1-1.603-2.353 3.525 3.525 0 0 1-.062-.654H10.88l-.004 10.335c-.044 1.157-1.015 2.086-2.206 2.086-.37 0-.718-.09-1.024-.249a2.164 2.164 0 0 1-1.185-1.919c0-1.195.991-2.167 2.21-2.167.227 0 .445.036.651.1V8.054a4.918 4.918 0 0 0-.652-.047c-2.667 0-4.838 2.13-4.838 4.746 0 1.606.818 3.027 2.066 3.887.786.541 1.742.86 2.772.86 2.668 0 4.839-2.13 4.839-4.747v-5.24a6.334 6.334 0 0 0 3.657 1.154V6.088a3.685 3.685 0 0 1-1.992-.581" fill="#4C5267" fill-rule="evenodd"/>
</svg>
