<svg width="20" height="20" viewBox="0 0 20 20" xmlns="http://www.w3.org/2000/svg">
    <path d="M5.833 14.583c-1.273 0-2.355-.445-3.246-1.336-.891-.89-1.337-1.972-1.337-3.245 0-1.273.446-2.355 1.337-3.247.891-.892 1.973-1.338 3.246-1.338h8.334c1.273 0 2.355.445 3.246 1.336.891.89 1.337 1.972 1.337 3.245 0 1.273-.446 2.355-1.337 3.247-.891.892-1.973 1.338-3.246 1.338H5.833zm0-1.25h8.334a3.21 3.21 0 0 0 2.354-.979A3.21 3.21 0 0 0 17.5 10a3.21 3.21 0 0 0-.98-2.354 3.21 3.21 0 0 0-2.353-.98H5.833a3.21 3.21 0 0 0-2.354.98A3.21 3.21 0 0 0 2.5 10c0 .917.326 1.701.98 2.354a3.21 3.21 0 0 0 2.353.98zm0-1.041c.636 0 1.177-.223 1.623-.668.446-.446.669-.987.669-1.623s-.223-1.178-.668-1.623a2.207 2.207 0 0 0-1.623-.67c-.636 0-1.177.223-1.623.668-.446.446-.67.987-.67 1.623s.223 1.178.669 1.623c.445.447.986.67 1.622.67z" fill="#16171D" fill-rule="evenodd"/>
</svg>
