<svg width="20" height="20" viewBox="0 0 20 20" xmlns="http://www.w3.org/2000/svg">
    <path d="M4.423 9.008c-.42 0-.777-.145-1.069-.437a1.454 1.454 0 0 1-.437-1.07v-2.82c0-.42.146-.777.437-1.069a1.454 1.454 0 0 1 1.07-.437h11.153c.42 0 .777.146 1.069.438.291.291.437.647.437 1.068v2.82c0 .422-.145.778-.437 1.07a1.454 1.454 0 0 1-1.07.437H4.424zm0-1.25h11.154a.245.245 0 0 0 .176-.08.245.245 0 0 0 .08-.176v-2.82a.245.245 0 0 0-.08-.177.245.245 0 0 0-.176-.08H4.423a.245.245 0 0 0-.176.08.245.245 0 0 0-.08.176v2.82c0 .065.026.124.08.177.053.054.112.08.176.08zm0 9.07c-.42 0-.777-.145-1.069-.437a1.454 1.454 0 0 1-.437-1.069v-2.82c0-.421.146-.777.437-1.07a1.454 1.454 0 0 1 1.07-.437h11.153c.42 0 .777.146 1.069.438.291.292.437.648.437 1.069v2.82c0 .421-.145.778-.437 1.07a1.454 1.454 0 0 1-1.07.437H4.424zm0-1.25h11.154a.245.245 0 0 0 .176-.08.245.245 0 0 0 .08-.176v-2.82a.245.245 0 0 0-.08-.176.245.245 0 0 0-.176-.08H4.423a.245.245 0 0 0-.176.08.245.245 0 0 0-.08.176v2.82c0 .064.026.123.08.177.053.053.112.08.176.08zM4.206 4.426v3.333-3.333zm0 7.82v3.334-3.334z" fill="#4C61F7" fill-rule="evenodd"/>
</svg>
