<svg width="24" height="24" viewBox="0 0 24 24" xmlns="http://www.w3.org/2000/svg">
    <path d="m19.763 21.345-4.046-4.016c-.513.19-1.081.345-1.705.466-.624.12-1.294.18-2.01.18-2.35 0-4.464-.646-6.34-1.938-1.878-1.292-3.251-2.98-4.122-5.062a11.11 11.11 0 0 1 1.43-2.472 11.367 11.367 0 0 1 1.932-1.99l-2.77-2.8L3.186 2.66l17.63 17.63-1.053 1.055zm-7.762-6.293c.21 0 .424-.018.643-.054.22-.035.414-.088.584-.157L8.136 9.748c-.07.184-.122.383-.158.6a3.83 3.83 0 0 0-.053.627c0 1.135.395 2.098 1.187 2.89.792.791 1.755 1.187 2.89 1.187zm6.954.508-3.136-3.112c.078-.212.14-.44.188-.684.048-.244.071-.507.071-.789 0-1.134-.395-2.097-1.187-2.889-.792-.792-1.755-1.188-2.89-1.188-.282 0-.541.026-.778.076a3.24 3.24 0 0 0-.685.228L8.036 4.71a10.096 10.096 0 0 1 1.937-.556c.659-.119 1.335-.179 2.028-.179 2.344 0 4.458.647 6.34 1.939 1.884 1.292 3.258 2.98 4.122 5.061-.37.894-.849 1.728-1.436 2.502a11.084 11.084 0 0 1-2.072 2.083zm-4.269-4.235-3.01-3c.442-.083.858-.05 1.25.098.391.15.729.37 1.012.664.29.293.502.638.637 1.033.134.394.171.796.111 1.205z" fill="#16171D" fill-rule="evenodd"/>
</svg>
