<svg width="24" height="24" viewBox="0 0 24 24" xmlns="http://www.w3.org/2000/svg">
    <path d="M12.004 16.077c1.133 0 2.095-.397 2.887-1.19.792-.793 1.187-1.756 1.187-2.89 0-1.132-.396-2.095-1.19-2.886-.793-.792-1.756-1.188-2.889-1.188-1.133 0-2.095.397-2.887 1.19-.792.793-1.187 1.756-1.187 2.89 0 1.132.396 2.095 1.19 2.886.793.792 1.756 1.188 2.889 1.188zm-.002-1.377c-.75 0-1.388-.263-1.913-.788A2.604 2.604 0 0 1 9.302 12c0-.75.262-1.388.787-1.913a2.604 2.604 0 0 1 1.912-.787c.75 0 1.388.262 1.913.787.525.525.787 1.163.787 1.913s-.262 1.387-.787 1.912a2.604 2.604 0 0 1-1.912.788zm0 4.3c-2.299 0-4.394-.634-6.285-1.903C3.826 15.828 2.434 14.13 1.54 12c.894-2.13 2.285-3.829 4.176-5.097C7.606 5.634 9.7 5 12 5c2.3 0 4.395.634 6.286 1.903C20.177 8.17 21.57 9.87 22.463 12c-.894 2.13-2.285 3.828-4.176 5.097C16.397 18.366 14.302 19 12.003 19z" fill="#16171D" fill-rule="evenodd"/>
</svg>
