<svg width="24" height="24" viewBox="0 0 24 24" xmlns="http://www.w3.org/2000/svg">
    <path d="m15.775 12.448-1.123-1.123c.15-.828-.087-1.572-.71-2.233-.622-.661-1.385-.917-2.29-.767l-1.124-1.123a3.45 3.45 0 0 1 1.473-.304c1.135 0 2.098.396 2.89 1.188.792.792 1.187 1.755 1.187 2.89 0 .281-.025.544-.076.788-.05.243-.126.472-.227.684zm3.18 3.112-1.103-1.035a10.95 10.95 0 0 0 1.687-1.587 8.898 8.898 0 0 0 1.262-1.963c-.833-1.683-2.029-3.02-3.587-4.012-1.558-.992-3.296-1.488-5.212-1.488-.484 0-.959.034-1.426.1a9.625 9.625 0 0 0-1.375.3L8.037 4.71a10.096 10.096 0 0 1 1.937-.556c.659-.119 1.335-.179 2.028-.179 2.344 0 4.458.647 6.34 1.939 1.884 1.292 3.258 2.98 4.122 5.061-.37.894-.849 1.728-1.436 2.502a11.084 11.084 0 0 1-2.072 2.083zm.808 5.785-4.046-4.016c-.513.19-1.081.345-1.705.466-.624.12-1.294.18-2.01.18-2.35 0-4.464-.646-6.34-1.938-1.878-1.292-3.251-2.98-4.122-5.062a11.11 11.11 0 0 1 1.43-2.472 11.367 11.367 0 0 1 1.932-1.99l-2.77-2.8L3.186 2.66l17.63 17.63-1.053 1.055zM5.955 7.568a11.04 11.04 0 0 0-1.541 1.516c-.5.59-.904 1.22-1.212 1.891.833 1.684 2.029 3.021 3.587 4.013 1.558.992 3.296 1.487 5.213 1.487.455 0 .908-.038 1.36-.115.45-.077.833-.156 1.147-.238l-1.265-1.297a3.612 3.612 0 0 1-1.242.227c-1.135 0-2.098-.396-2.89-1.187-.792-.792-1.187-1.755-1.187-2.89 0-.202.02-.414.061-.635.041-.221.096-.424.166-.607L5.955 7.568z" fill="#16171D" fill-rule="evenodd"/>
</svg>
