<svg width="16" height="16" viewBox="0 0 16 16" xmlns="http://www.w3.org/2000/svg">
    <path d="M3.852 13.76c-.326 0-.605-.117-.837-.349a1.141 1.141 0 0 1-.348-.837V9.878l1.63-1.852.844.844-1.185 1.334h8.088L10.89 8.9l.844-.844 1.6 1.822v2.696c0 .326-.116.605-.348.837a1.141 1.141 0 0 1-.837.348H3.852zM7.17 9.255l-2.059-2.09a1.147 1.147 0 0 1-.34-.844c0-.336.113-.617.34-.844l2.904-2.904c.227-.227.508-.34.844-.34.336 0 .618.113.845.34l2.089 2.06c.227.226.343.506.348.836.005.331-.106.61-.334.837L8.844 9.27a1.113 1.113 0 0 1-.837.334 1.164 1.164 0 0 1-.837-.348zm3.793-3.793L8.859 3.389 5.926 6.322 8.03 8.396l2.933-2.933z" fill="#4C5267" fill-rule="evenodd"/>
</svg>
