<svg width="24" height="24" viewBox="0 0 24 24" xmlns="http://www.w3.org/2000/svg">
    <path d="M4.615 19c-.46 0-.844-.154-1.153-.462A1.565 1.565 0 0 1 3 17.385V6.615c0-.46.154-.844.462-1.152A1.565 1.565 0 0 1 4.615 5h14.77c.46 0 .844.154 1.152.463.309.308.463.692.463 1.152v10.77c0 .46-.154.844-.462 1.152a1.565 1.565 0 0 1-1.153.463H4.615zm0-1H15v-3.885H4v3.27c0 .153.064.294.192.423.129.128.27.192.423.192zM16 18h3.385a.588.588 0 0 0 .423-.192.588.588 0 0 0 .192-.423V9.23h-4V18zM4 13.115h11V9.231H4v3.884z" fill="#16171D" fill-rule="evenodd"/>
</svg>
