<svg width="20" height="20" viewBox="0 0 20 20" xmlns="http://www.w3.org/2000/svg">
    <path d="M8.026 11.972V8.025l3.948 1.973-3.948 1.974zm9.16-5.503a1.858 1.858 0 0 0-1.326-1.296C14.69 4.867 10 4.867 10 4.867s-4.69 0-5.86.306a1.858 1.858 0 0 0-1.327 1.296C2.5 7.613 2.5 10 2.5 10s0 2.385.313 3.528c.173.631.681 1.128 1.327 1.296 1.17.307 5.86.307 5.86.307s4.69 0 5.86-.307a1.858 1.858 0 0 0 1.327-1.296c.313-1.143.313-3.529.313-3.529s0-2.385-.313-3.529z" fill="#4C5267" fill-rule="evenodd"/>
</svg>
